<?xml version="1.0" encoding="utf-8"?>
<svg viewBox="-0.014 0 50 50" xmlns="http://www.w3.org/2000/svg">
  <defs>
    <style type="text/css">
	.st0{fill:url(#SVGID_1_);}
	.st1{fill:url(#SVGID_2_);}
	.st2{fill:#27282A;}
	.st3{fill:none;}
	.st4{fill:url(#SVGID_3_);}
	.st5{fill:url(#SVGID_4_);}
	.st6{fill:#535151;}
	.st7{fill:#ECF0F3;}
	.st8{fill:#95999C;}
	.st9{fill:#8E8E8F;}
	.st10{fill:url(#SVGID_5_);}
</style>
  </defs>
  <g transform="matrix(0.850139, 0, 0, 0.784929, -0.002081, 0)">
    <linearGradient id="SVGID_1_" gradientUnits="userSpaceOnUse" x1="7.7859" y1="41.7564" x2="53.6788" y2="3.2477">
      <stop offset="0.1773" style="stop-color:#17181A"/>
      <stop offset="0.4603" style="stop-color:#252628"/>
      <stop offset="0.4916" style="stop-color:#27282A"/>
      <stop offset="0.7934" style="stop-color:#2F3033"/>
    </linearGradient>
    <path class="st0" d="M56.5,6.8l0-0.2l-0.2-0.1C56,6.3,48.5,2.6,29.5,2.6c0,0,0,0,0,0C10.4,2.6,3,6.3,2.7,6.5L2.5,6.6l0,0.2 c0,0.2-0.3,19.5,4.4,30.3c4.2,9.9,10.1,15.8,14.3,19.1c4.6,3.5,8.1,4.7,8.2,4.8l0.1,0l0,0l0.1,0c0.1,0,3.7-1.2,8.2-4.8 C42,52.9,47.9,47,52.1,37.1C56.7,26.3,56.5,7,56.5,6.8z"/>
    <linearGradient id="SVGID_2_" gradientUnits="userSpaceOnUse" x1="23.7165" y1="1.4045" x2="12.543" y2="32.1034">
      <stop offset="0" style="stop-color:#ECF0F3"/>
      <stop offset="0.7711" style="stop-color:#95999C"/>
      <stop offset="1" style="stop-color:#95999C"/>
    </linearGradient>
    <path class="st1" d="M22.1,30.6l5.4-8.9L18.2,6.5C10.4,7.2,6.7,8.5,6,8.8L6,9c-0.1,1.4-0.6,11,2.3,21.6H22.1z M10.2,13.6h3.4v3.9 l3.5-3.9h3.6L17,18l4.3,6.4h-3.6l-2.7-4.1l-1.3,1.5v2.6h-3.4V13.6z M29.3,18.7L29.3,18.7L21.7,6.2C24,6.1,26.5,6,29.3,6v0 c2.8,0,5.4,0.1,7.6,0.2L29.3,18.7z"/>
    <path class="st2" d="M29.3,3.2c4.3,0,8.4,0.2,12.1,0.6c3,0.3,5.7,0.7,8.2,1.3c3.7,0.8,5.6,1.6,6.1,1.9c0,1.9,0,19.7-4.3,29.9 c-4.2,9.7-10,15.6-14.1,18.8c-4.1,3.2-7.4,4.4-7.9,4.6c-0.6-0.2-3.8-1.4-7.9-4.6c-4.1-3.2-9.9-9.1-14.1-18.8C2.9,26.7,3,8.8,3,6.9 C3.5,6.7,5.4,5.8,9.1,5c2.4-0.5,5.2-1,8.2-1.3C20.9,3.4,25,3.2,29.3,3.2 M29.3,2.5C10.3,2.5,2.9,6.3,2.6,6.4L2.3,6.5l0,0.2 c0,0.2-0.3,19.5,4.4,30.3c4.2,9.9,10.1,15.8,14.3,19.1c4.6,3.5,8.1,4.7,8.2,4.8l0.1,0l0.1,0c0.1,0,3.7-1.2,8.2-4.8 c4.2-3.3,10.1-9.2,14.3-19.1c4.6-10.8,4.4-30.2,4.4-30.3l0-0.2l-0.2-0.1C55.8,6.3,48.4,2.5,29.3,2.5L29.3,2.5z"/>
    <polygon class="st3" points="29.4,47.4 31.3,50.1 35.1,50.1 31.2,44.8 35.1,39.4 35,39.5 35.1,39.4 31.3,39.4 29.4,42.1 29.3,42.1 &#10;&#9;&#9;29.3,47.4 &#9;"/>
    <path class="st3" d="M37.9,24.6c0,0,4.3,0,4.5-5.5v-2.8H45v8.1h3.4V13.5H39V19c0,0.3,0,1-0.3,1.6c0,0,0,0,0,0c0,0,0,0,0,0 c-0.4,0.8-1.2,1.4-2.1,1.5L37.9,24.6z"/>
    <polygon class="st3" points="35.1,50.1 35,50 35.1,50.1 &#9;"/>
    <linearGradient id="SVGID_3_" gradientUnits="userSpaceOnUse" x1="41.614" y1="29.7883" x2="18.4403" y2="49.2334">
      <stop offset="0.0195" style="stop-color:#ECF0F3"/>
      <stop offset="0.8712" style="stop-color:#95999C"/>
    </linearGradient>
    <path class="st4" d="M38.9,37.3h-1.4h-0.4l-7.7-12.6l0,0v0l-7.8,12.6h-0.4h-1.5h-9.1c1.3,3.1,3,6.1,5.2,8.9 c4.5,5.5,9.1,8.4,11.6,9.7c0,0,0,0,0,0c1.1,0.6,1.8,0.8,1.8,0.8l0,0c0,0,0.1,0,0.4-0.1c1.6-0.7,3.1-1.6,4.5-2.5 c2.1-1.4,4.6-3.4,7.1-6.1c2.9-3.3,5-6.9,6.6-10.6H38.9z M35,50L35,50L35,50l-3.7,0.1l-1.9-2.7l0,0v0l-1.9,2.7h-3.8l3.1-5.3 l-3.1-5.3l0,0l3.8,0l1.9,2.7v0l0,0l0,0h0l0,0l1.9-2.7h3.8L35,39.5l-3.1,5.3L35,50z"/>
    <linearGradient id="SVGID_4_" gradientUnits="userSpaceOnUse" x1="-3.6815" y1="26.0028" x2="34.7919" y2="32.7867">
      <stop offset="0.236" style="stop-color:#D3D5D7"/>
      <stop offset="1" style="stop-color:#95999C"/>
    </linearGradient>
    <path class="st5" d="M29.2,60.9c-0.1,0-3.7-1.2-8.2-4.8c-4.2-3.3-10.1-9.2-14.3-19.1C2.1,26.3,2.3,6.9,2.3,6.7l0-0.2l0.2-0.1 c0.3-0.2,7.7-3.9,26.8-3.9V0l0,0C9,0,0.9,4.4,0.6,4.6L0.4,4.7L0,4.9l0,0.4l0,0.2C0,5.8-0.5,26.3,4.5,38C9,48.6,15.4,55,20,58.5 c5,3.8,8.9,5,9,5.1l0.1,0l0.2,0.1l0,0V61L29.2,60.9z"/>
    <polygon class="st6" points="31.2,44.8 35.1,50.1 35,50 31.3,44.8 35,39.5 35.1,39.4 &#9;"/>
    <path class="st7" d="M24.2,49.3L24.2,49.3l3.2-4.5l-3.7-5.1l-0.2-0.2l2.8,0l-3.1-0.2l3.4,5.5l-3.4,5.5l3.1-0.2l-2.8,0L24.2,49.3z M26.8,44.8l-0.1,0.1L26.8,44.8L26.8,44.8z"/>
    <path class="st8" d="M35.3,39.3l-3.1,0.2l2.8,0l-0.6,0.8l0,0.1l-3.2,4.5l3.2,4.4l0.1,0.1l0.6,0.8l-2.8,0l3.1,0.2l-3.4-5.5 L35.3,39.3z M32,44.9l-0.1-0.1l0,0L32,44.9z"/>
    <polygon class="st7" points="11.3,13.6 13.9,13.4 13.6,17.5 13.6,13.6 &#9;"/>
    <polygon class="st7" points="13.6,24.4 13.9,21.9 14.7,20.6 13.6,21.8 &#9;"/>
    <polygon class="st7" points="19.2,15.5 17.3,18 19.4,21.6 17,18 &#9;"/>
    <path class="st9" d="M21,56.2c-0.1,0-0.1-0.1-0.2-0.1c0,0,0,0,0,0C20.9,56.1,21,56.1,21,56.2z"/>
    <path class="st9" d="M20.8,56C20.8,56,20.8,56,20.8,56C20.8,56,20.8,56,20.8,56C20.8,56,20.8,56,20.8,56z"/>
    <linearGradient id="SVGID_5_" gradientUnits="userSpaceOnUse" x1="13.5679" y1="31.827" x2="58.6986" y2="31.827">
      <stop offset="0.4521" style="stop-color:#E0E0E2"/>
      <stop offset="0.9364" style="stop-color:#95999C"/>
    </linearGradient>
    <path class="st10" d="M36.6,30.6h13.8c3-10.6,2.4-20.2,2.3-21.6l0-0.2c-0.7-0.3-4.4-1.6-12.2-2.3l-9.3,15.2L36.6,30.6z M38.6,20.7 C38.6,20.7,38.6,20.7,38.6,20.7C38.6,20.7,38.6,20.7,38.6,20.7C38.9,20,39,19.3,39,19v-5.5h9.4v10.9H45v-8.1h-2.6V19 c-0.2,5.5-4.5,5.5-4.5,5.5l-1.4-2.3C37.4,22.1,38.2,21.5,38.6,20.7z M54.2,38c-4.5,10.6-10.9,17-15.5,20.5c-5,3.8-8.9,5-9,5.1 l-0.1,0l-0.2,0.1v-2l-0.1,0c-0.1,0-5.5-2.4-8.2-5.4c-0.1-0.1-0.1-0.1-0.2-0.2c0.1,0,0.1,0.1,0.2,0.1c4.6,3.5,8.1,4.7,8.2,4.7l0.1,0 v0l0.1,0c0.1,0,3.7-1.2,8.2-4.8c4.2-3.3,10.1-9.2,14.3-19.1c4.6-10.8,4.4-30.2,4.4-30.3l0-0.2l-0.2-0.1c-0.3-0.2-7.7-3.9-26.7-3.9 c-6.5,0-11.8,0.4-15.8,1c0,0,4-1.2,15.8-1.7V0c20.4,0,28.4,4.4,28.7,4.6l0.2,0.1l0.4,0.2l0,0.4l0,0.2C58.7,5.8,59.2,26.3,54.2,38z"/>
    <path class="st7" d="M52.4,37.1c4.9-12.7,3.9-30.4,3.9-30.6l0,0.2c0,0.2,0.3,19.5-4.4,30.3C47.7,47,41.8,52.9,37.7,56.2 c-1.9,1.5-3.7,2.6-5.1,3.3c1.4-0.7,3.2-1.8,5.2-3.3C42.1,52.9,48.5,47.1,52.4,37.1z"/>
    <polygon class="st7" points="44.2,13.5 48.6,13.2 48.6,24.6 46.3,24.3 48.4,24.3 48.4,13.5 &#9;"/>
    <polygon class="st7" points="22.1,30.6 26.6,21.7 18.2,6.5 27.5,21.7 &#9;"/>
    <g>
      <polygon class="st8" points="29.4,18.7 29.4,17.2 21.8,6.2 &#9;&#9;"/>
      <g>
        <polygon class="st8" points="29.4,24.7 29.4,26.2 21.7,37.2 &#9;&#9;&#9;"/>
        <polygon class="st7" points="29.4,24.7 29.4,26.2 37,37.2 &#9;&#9;&#9;"/>
      </g>
    </g>
    <polygon class="st8" points="36.6,30.6 32,21.7 40.4,6.5 31.2,21.7 &#9;"/>
    <polygon class="st7" points="29.4,18.7 29.4,17.2 37,6.3 &#9;"/>
  </g>
</svg>