<?xml version="1.0" encoding="utf-8"?>
<svg viewBox="1 51.337 50 50" xmlns="http://www.w3.org/2000/svg">
  <linearGradient id="h" gradientUnits="userSpaceOnUse" x1="164.022" y1="753.475" x2="171.272" y2="753.475" gradientTransform="matrix(16.11 0 0 16.11 -2628.902 -12008.96)">
    <stop offset="0.39" stop-color="#FFF"/>
    <stop offset="0.47" stop-color="#FAFAFA"/>
    <stop offset="0.57" stop-color="#EBECED"/>
    <stop offset="0.67" stop-color="#D2D5D7"/>
    <stop offset="0.79" stop-color="#AFB5B9"/>
    <stop offset="0.87" stop-color="#949CA1"/>
  </linearGradient>
  <path d="M130.198 100.954l-9.344-34.474-19.976 54.61c-8.538 23.52-22.875 38.342-42.53 44.14l-45.106 13.372 28.353 13.21c0-.16 69.755-6.283 88.603-90.858z" fill="url(#h)"/>
  <path d="M 7.626 79.267 L 34.991 61.155 C 34.501 61.225 33.984 61.272 33.454 61.272 C 30.115 61.272 27.504 59.987 26.007 59.017 C 24.509 59.987 21.912 61.272 18.559 61.272 C 16.359 61.272 14.477 60.618 13.152 59.963 C 11.92 61.775 10.369 62.826 9.15 63.434 C 9.68 64.836 10.29 66.998 10.29 69.487 C 10.277 74.278 8.408 76.544 7.626 79.267 Z M 16.425 91.618 C 16.558 91.641 16.677 91.688 16.796 91.712 C 20.11 92.448 24.165 92.845 25.384 93.453 C 25.662 93.628 26.007 93.955 26.007 93.955 C 26.007 93.955 26.338 93.64 26.616 93.464 C 27.849 92.857 31.891 92.471 35.204 91.723 C 39.789 90.695 44.732 87.096 44.732 81.639 C 44.732 78.917 43.38 77.129 42.492 74.394 L 16.425 91.618 Z M 4.247 69.487 C 4.247 74.675 1.252 75.855 1.252 81.627 C 1.252 89.936 8.54 95.369 15.312 96.9 C 18.731 97.636 19.765 97.683 22.853 98.349 C 23.104 98.594 26.007 101.34 26.007 101.34 C 26.007 101.34 28.896 98.582 29.147 98.349 C 32.248 97.671 33.269 97.624 36.688 96.9 C 43.46 95.369 50.748 89.924 50.748 81.627 C 50.748 75.855 47.753 74.687 47.753 69.487 C 47.753 67.605 48.204 65.759 49.079 63.983 L 51 60.15 L 46.481 58.982 C 45.103 58.62 44.096 57.673 43.46 56.177 L 41.472 51.34 L 37.019 54.6 C 35.84 55.465 34.634 55.909 33.467 55.909 C 31.89 55.909 30.088 55.231 28.895 54.18 L 26.006 51.679 L 23.131 54.191 C 21.925 55.231 20.136 55.921 18.559 55.921 C 17.379 55.921 16.173 55.488 15.007 54.612 L 10.528 51.34 L 8.54 56.166 C 7.917 57.661 6.897 58.608 5.532 58.97 L 1 60.139 L 2.922 63.971 C 3.796 65.759 4.247 67.605 4.247 69.487 Z M 5.731 59.589 C 7.348 59.169 8.527 58.094 9.23 56.388 L 10.873 52.427 L 14.517 55.091 C 15.723 55.967 17.088 56.54 18.546 56.54 C 20.507 56.54 22.442 55.675 23.648 54.623 L 25.993 52.567 L 28.339 54.623 C 29.545 55.675 31.48 56.54 33.441 56.54 C 34.899 56.54 36.277 55.967 37.47 55.091 L 41.114 52.427 L 42.757 56.388 C 43.46 58.094 44.639 59.169 46.256 59.589 L 49.966 60.559 L 48.389 63.726 C 47.594 65.315 46.998 67.278 46.998 69.487 C 46.998 72.279 47.806 73.915 48.588 75.633 C 49.317 77.234 50.006 78.893 50.006 81.627 C 50.006 89.223 43.606 94.668 36.516 96.28 C 33.017 97.063 31.374 97.145 28.763 97.788 C 28.419 98.103 26.007 100.405 26.007 100.405 C 26.007 100.405 23.595 98.103 23.25 97.788 C 20.64 97.145 19.01 97.063 15.484 96.292 C 10.025 95.03 4.962 91.501 2.935 86.465 C 2.338 84.981 2.007 83.357 2.007 81.627 C 2.007 75.96 5.002 74.885 5.002 69.487 C 5.002 67.278 4.406 65.315 3.611 63.726 L 2.034 60.571 L 5.731 59.589 Z M 14 90.765 L 41.949 72.256 C 41.803 71.426 41.723 70.503 41.723 69.463 C 41.723 66.963 42.346 64.801 42.863 63.41 C 41.803 62.908 40.531 62.055 39.404 60.688 L 7.282 81.955 C 7.44 86.138 10.502 89.176 14 90.765 Z M 35.469 65.163 L 35.469 72.244 L 39.723 69.428 C 39.723 69.428 39.577 70.34 39.723 71.847 L 33.057 76.264 L 33.057 68.634 C 33.057 67.547 31.891 67.524 31.891 67.524 L 35.469 65.163 Z M 26.099 71.368 L 26.099 74.885 L 28.75 73.132 L 28.75 69.615 L 31.042 68.084 L 31.042 77.596 L 28.75 79.127 L 28.75 75.645 L 26.099 77.397 L 26.099 80.88 L 23.687 82.48 L 23.687 74.85 C 23.687 73.775 22.521 73.74 22.521 73.74 L 26.099 71.368 Z M 16.213 77.912 L 19.208 81.966 L 19.208 75.925 L 21.554 74.371 L 21.554 83.882 L 19.062 85.53 L 16.372 81.919 L 16.372 87.318 L 14.027 88.872 L 14.027 81.242 C 14.027 80.155 12.861 80.132 12.861 80.132 L 16.213 77.912 Z M 6.592 71.041 C 6.102 75.352 3.677 77.07 3.677 81.616 C 3.677 87.189 8.01 93.032 15.922 94.808 C 19.672 95.649 22.283 95.86 24.191 96.467 C 24.43 96.666 26.033 98.185 26.033 98.185 C 26.033 98.185 27.623 96.666 27.875 96.467 C 29.783 95.86 32.381 95.649 36.131 94.808 C 44.043 93.044 48.376 87.201 48.376 81.627 C 48.376 76.568 45.381 75.002 45.381 69.475 C 45.381 65.163 47.727 61.517 47.727 61.517 C 47.727 61.517 41.989 61.073 40.438 54.939 C 40.438 54.939 36.993 58.07 33.521 58.07 C 29.028 58.07 26.073 54.705 26.073 54.705 C 26.073 54.705 23.118 58.07 18.625 58.07 C 15.14 58.07 11.708 54.95 11.708 54.95 C 10.157 61.097 4.419 61.541 4.419 61.541 C 4.419 61.541 6.765 65.187 6.765 69.498 C 6.672 70.024 6.645 70.562 6.592 71.041 Z M 6.672 62.487 C 6.672 62.487 10.568 61.798 12.383 57.439 C 12.383 57.439 14.981 59.578 18.532 59.578 C 23.012 59.578 25.993 56.808 25.993 56.808 C 25.993 56.808 28.962 59.578 33.441 59.578 C 37.019 59.578 39.603 57.439 39.603 57.439 C 41.419 61.798 45.315 62.487 45.315 62.487 C 45.315 62.487 43.632 65.525 43.632 69.475 C 43.632 75.329 46.627 77.023 46.627 81.627 C 46.627 88.077 40.928 92.167 35.654 93.359 C 31.48 94.294 28.75 94.399 26.908 95.182 C 26.908 95.182 26.232 95.719 25.98 95.965 C 25.728 95.719 25.052 95.182 25.052 95.182 C 23.224 94.411 20.48 94.294 16.306 93.359 C 11.032 92.179 5.333 88.077 5.333 81.639 C 5.333 77.035 8.328 75.341 8.328 69.487 C 8.368 65.525 6.672 62.487 6.672 62.487 Z" fill="#111"/>
</svg>