<svg width="350" height="350" viewBox="0 0 350 350" fill="none" xmlns="http://www.w3.org/2000/svg">
<path d="M142.365 319.537C118.039 314.431 97.1168 303.72 80.3989 288.103C63.8812 272.687 51.7682 252.665 45.2613 228.639C39.4551 207.116 38.5541 183.992 40.6563 160.967C42.7586 138.143 47.8641 115.518 54.1708 94.7962C54.7714 92.8942 55.272 92.3936 55.1719 92.1934C55.0718 91.793 54.7714 92.5939 53.2698 92.0933C48.3646 90.3915 45.3614 87.1881 43.5594 83.384C41.7575 79.3797 41.6574 74.6747 42.7586 70.1699L48.765 45.4434V45.1431L48.8651 44.8427C50.3667 40.438 53.2698 37.0344 57.0739 34.9321C60.6778 33.0301 65.1826 32.3294 69.8876 33.4305L112.033 42.3401L117.739 43.5414L117.138 49.3476L116.838 53.5521L116.237 61.6607L112.733 60.8599L113.034 86.5874H238.668L238.568 60.8599L234.264 61.9611L233.963 53.6522L233.863 49.4477L233.763 43.8417L239.169 42.7405L282.115 33.5306C286.82 32.4295 291.124 33.1302 294.929 35.0322C298.633 37.1345 301.636 40.438 303.137 44.9429L303.237 45.2432V45.5435L309.244 70.27C310.345 74.6747 310.245 79.4798 308.443 83.4841C306.641 87.4884 303.538 90.5917 298.733 92.1934C297.231 92.7941 297.031 91.793 296.831 92.2935C296.73 92.5939 297.231 92.9943 297.832 94.8963C304.038 115.619 309.044 138.243 311.346 161.067C313.548 184.092 312.547 207.317 306.741 228.74C300.234 252.665 288.121 272.787 271.604 288.203C254.886 303.82 233.763 314.632 209.637 319.637C203.13 321.038 197.224 322.039 191.818 322.74C186.412 323.441 181.107 323.741 175.701 323.741H175.601C170.195 323.741 164.989 323.441 159.484 322.74C154.778 322.039 149.072 320.938 142.365 319.537Z" fill="#231F20"/>
<path fill-rule="evenodd" clip-rule="evenodd" d="M272.204 192.501C274.407 192.501 276.209 194.303 276.209 196.505C276.209 198.708 274.407 200.509 272.204 200.509C270.002 200.509 268.2 198.708 268.2 196.505C268.1 194.303 269.902 192.501 272.204 192.501ZM143.767 313.03C156.38 315.633 166.291 316.934 176.302 316.934H176.402C186.412 316.934 196.323 315.733 208.937 313.03C254.786 303.42 288.422 272.687 300.935 226.838C312.147 185.393 304.439 137.342 292.025 96.5982C289.923 89.8911 290.324 87.989 297.131 85.5865C303.237 83.4842 304.639 77.4778 303.237 71.5715L297.231 46.845C295.329 41.239 290.324 38.3359 284.117 39.9376L245.576 48.1464V52.1507C258.49 49.0473 271.604 46.4446 284.618 44.042C289.523 42.8407 292.025 44.7427 293.227 48.2465C295.329 56.8557 297.231 64.4638 299.333 73.1732C300.434 76.6769 299.433 80.2808 295.83 81.6823C286.52 84.7856 285.218 88.7899 287.721 97.4992C299.634 137.842 307.642 185.093 296.63 225.837C284.718 270.084 251.983 299.616 207.835 308.926C195.722 311.428 186.012 312.63 176.101 312.63H176.001C166.291 312.63 156.38 311.428 144.267 308.926C99.9199 299.616 67.385 269.984 55.4723 225.837C44.4605 185.093 52.369 137.842 64.3818 97.4992C66.9846 88.7899 65.5831 84.6855 56.2731 81.6823C52.6693 80.2808 51.6682 76.6769 52.7694 73.1732C54.8716 64.564 56.7737 56.9558 58.8759 48.2465C59.9771 44.7427 62.5799 42.8407 67.4851 44.042C80.399 46.4446 93.3128 48.9472 106.127 51.9505L106.026 47.9462L68.0858 39.8375C61.9793 38.436 56.9739 41.3391 54.9718 46.7449L48.9653 71.4713C47.5638 77.2776 48.9653 83.3841 55.0719 85.4864C61.9793 87.8889 62.2796 89.791 60.1773 96.4981C47.9642 137.342 40.0558 185.293 51.2678 226.738C64.2817 272.587 97.9177 303.42 143.767 313.03ZM179.505 309.927C195.923 309.226 216.645 305.522 230.66 299.215C312.648 262.576 307.842 168.575 285.318 98.2C282.515 87.1882 282.515 83.4842 295.029 78.579C296.831 77.8782 297.431 76.1764 296.53 74.1742L290.724 49.8482C289.923 47.3455 288.121 46.6448 285.719 47.3455C272.204 49.5479 258.89 52.2508 245.676 55.6544L245.776 86.4874V209.519C245.776 262.576 189.716 244.156 177.203 271.485C176.802 272.086 176.502 272.987 176.101 273.387C175.801 272.787 175.401 271.886 175.1 271.485C162.587 244.256 106.527 262.776 106.527 209.519V86.3873L106.227 55.3541C93.1126 52.0506 79.9985 49.3477 66.5842 47.1453C64.1816 46.4446 62.3797 47.1453 61.5788 49.648L55.7726 73.974C55.0719 76.0763 55.6725 77.678 57.2742 78.3787C69.7876 83.3841 69.7876 86.988 66.9846 97.9997C44.4605 168.375 39.5552 262.175 121.643 299.015C135.658 305.222 156.38 309.026 172.798 309.726C174.199 309.927 177.803 309.927 179.505 309.927ZM272.204 187.996C267.499 187.996 263.695 191.7 263.695 196.505C263.695 201.21 267.399 205.014 272.204 205.014C276.909 205.014 280.713 201.31 280.713 196.505C280.713 191.8 276.809 187.996 272.204 187.996ZM82.2009 60.86C86.9059 60.86 90.71 64.564 90.71 69.3691C90.71 74.1742 87.006 77.8782 82.2009 77.8782C77.3958 77.8782 73.6918 74.1742 73.6918 69.3691C73.6918 64.564 77.4959 60.86 82.2009 60.86ZM269.001 61.1603C273.706 61.1603 277.51 64.8643 277.51 69.6694C277.51 74.4746 273.806 78.1785 269.001 78.1785C264.296 78.1785 260.492 74.4746 260.492 69.6694C260.492 64.8643 264.396 61.1603 269.001 61.1603ZM80.0986 187.996C84.8037 187.996 88.6078 191.7 88.6078 196.505C88.6078 201.21 84.9038 205.014 80.0986 205.014C75.2935 205.014 71.5895 201.31 71.5895 196.505C71.6896 191.8 75.3936 187.996 80.0986 187.996ZM103.924 250.163C108.629 250.163 112.433 253.867 112.433 258.672C112.433 263.377 108.729 267.181 103.924 267.181C99.2191 267.181 95.415 263.477 95.415 258.672C95.415 253.967 99.119 250.163 103.924 250.163ZM248.179 250.163C252.884 250.163 256.688 253.867 256.688 258.672C256.688 263.377 252.984 267.181 248.179 267.181C243.474 267.181 239.669 263.477 239.669 258.672C239.669 253.967 243.574 250.163 248.179 250.163ZM82.2009 65.1646C84.4033 65.1646 86.2052 66.9665 86.2052 69.1689C86.2052 71.3712 84.4033 73.1732 82.2009 73.1732C79.9985 73.1732 78.1966 71.3712 78.1966 69.1689C77.9964 66.9665 79.9985 65.1646 82.2009 65.1646ZM269.001 65.4649C271.203 65.4649 273.005 67.2668 273.005 69.4692C273.005 71.6716 271.203 73.6737 269.001 73.6737C266.798 73.6737 264.997 71.8718 264.997 69.4692C264.997 67.2668 266.798 65.4649 269.001 65.4649ZM80.0986 192.501C82.301 192.501 84.1029 194.303 84.1029 196.505C84.1029 198.708 82.301 200.509 80.0986 200.509C77.8963 200.509 76.0944 198.708 76.0944 196.505C76.0944 194.303 77.8963 192.501 80.0986 192.501ZM103.924 254.467C106.127 254.467 107.928 256.269 107.928 258.472C107.928 260.674 106.127 262.476 103.924 262.476C101.722 262.476 99.9199 260.674 99.9199 258.472C99.7197 256.469 101.522 254.467 103.924 254.467ZM248.179 254.467C250.381 254.467 252.183 256.269 252.183 258.472C252.183 260.674 250.381 262.476 248.179 262.476C245.976 262.476 244.174 260.674 244.174 258.472C244.174 256.469 245.976 254.467 248.179 254.467Z" fill="#FFCA05"/>
<path d="M55.7724 141.046L90.009 86.3873H109.93V42.7405H109.33H104.124V37.4349V30.4274V27.0237H109.23C118.64 27.0237 121.843 29.2261 128.65 37.3348C135.458 29.2261 138.361 27.0237 148.071 27.0237H151.174V30.3273V37.4349V42.1399H149.473C149.072 42.1399 148.872 42.1399 148.672 42.1399V63.1624H156.08V42.1399H155.479H153.777V37.4349V30.4274V27.0237H156.881C166.991 27.324 169.494 29.2261 176.301 37.3348C183.109 29.2261 186.012 26.7234 195.722 27.0237H198.826V30.3273V37.4349V42.1399H197.124C196.723 42.1399 196.523 42.1399 196.323 42.1399V63.1624H203.23V42.1399H202.63H201.228V37.4349V30.4274V27.0237H203.831C213.541 26.7234 216.444 29.2261 223.252 37.3348C230.059 29.2261 233.362 26.7234 242.672 27.0237H247.778V30.3273V37.4349V42.7405H242.472C242.072 42.7405 241.872 42.7405 241.671 42.7405L241.771 86.3873H261.392L296.03 140.445L306.04 136.741C306.641 134.138 308.143 131.836 310.345 130.735C314.95 128.532 320.756 131.436 323.559 137.142C326.362 142.848 324.961 149.355 320.356 151.457C317.953 152.558 315.25 152.458 312.747 151.057L289.523 164.771L293.527 178.686L292.025 181.89H285.218L275.608 171.979L241.872 184.592L241.972 208.518V208.618C287.721 228.74 306.741 254.868 240.17 234.346L235.965 232.844C222.751 255.168 190.216 244.356 176.001 267.381C165.189 246.258 129.551 254.267 115.636 232.344L109.83 234.546C42.2579 255.368 62.88 228.339 109.93 208.017V185.493L74.3923 172.179L64.782 182.09H57.9747L56.4731 178.886L60.4774 164.971L37.2526 151.257C34.7499 152.658 31.9469 152.758 29.6444 151.657C25.0395 149.455 23.638 143.048 26.441 137.342C29.244 131.636 35.1503 128.733 39.6551 130.935C42.0577 132.036 43.3591 134.238 43.9597 136.941L55.7724 141.046Z" fill="#231F20"/>
<path fill-rule="evenodd" clip-rule="evenodd" d="M113.334 86.3873V40.1378C113.234 38.6362 112.333 37.535 109.43 37.535V33.0302C119.14 32.9301 125.147 36.2336 128.75 43.3412C132.354 36.2336 138.461 32.9301 148.071 33.0302V37.4349C145.168 37.4349 144.067 38.5361 143.867 40.0377V68.2679H160.785V40.1378C160.685 38.6362 159.784 37.535 156.88 37.535V33.0302C166.591 32.9301 172.597 36.2336 176.201 43.3412C179.805 36.2336 185.912 32.9301 195.522 33.0302V37.4349C192.619 37.4349 191.518 38.5361 191.317 40.0377V68.2679H207.735V40.1378C207.635 38.6362 206.734 37.535 203.831 37.535V33.0302C213.541 32.9301 219.548 36.2336 223.151 43.3412C226.755 36.2336 232.862 32.9301 242.472 33.0302V37.4349C239.369 37.4349 238.468 38.5361 238.268 40.0377V86.2872H145.168C141.464 86.2872 138.261 87.2882 136.258 89.891C134.156 87.4884 131.854 86.5875 129.351 86.2872H113.334V86.3873ZM114.135 147.753C123.345 146.752 132.454 145.951 141.664 145.35C132.755 154.06 127.349 166.373 127.349 179.787C127.349 206.716 149.172 228.539 176.101 228.539C203.03 228.539 224.853 206.716 224.853 179.787C224.853 166.273 219.447 154.26 210.538 145.35C219.748 145.951 228.858 146.552 237.967 147.553V207.617C238.568 226.838 230.76 239.351 212.94 243.455C179.605 251.564 183.008 253.867 176.101 260.974C169.194 253.867 172.597 251.564 139.262 243.455C121.443 239.251 113.734 226.738 114.235 207.617V147.753H114.135Z" fill="#EF4E23"/>
<path fill-rule="evenodd" clip-rule="evenodd" d="M311.746 132.837C310.545 133.438 309.544 134.539 308.943 135.94C308.943 135.94 309.043 135.84 309.244 135.84C312.347 134.339 316.351 136.241 318.153 140.145C319.354 142.748 319.354 145.751 318.253 147.753C318.353 147.753 318.654 147.653 318.854 147.453C322.057 145.951 323.058 141.346 321.056 137.342C319.054 133.438 314.85 131.335 311.746 132.837ZM38.6539 132.837C39.8552 133.438 40.8563 134.539 41.4569 135.94C41.4569 135.94 41.3568 135.84 41.1566 135.84C38.0533 134.339 34.049 136.241 32.247 140.145C31.0458 142.748 31.0458 145.751 32.1469 147.753C32.0468 147.753 31.7465 147.653 31.5463 147.453C28.3429 145.951 27.3418 141.346 29.3439 137.342C31.3461 133.438 35.5506 131.335 38.6539 132.837ZM92.6117 166.773L109.83 173.28V161.367L83.4018 151.357C82.8012 157.764 86.5051 164.671 92.6117 166.773ZM239.969 222.333L279.211 237.048C272.805 227.638 258.89 219.43 241.972 211.521C241.771 215.325 241.371 218.429 239.969 222.333ZM84.3028 137.842L81.8001 147.853L79.5977 147.152L68.7862 169.676L72.39 170.878L63.6807 179.587L60.3772 179.487L63.981 169.476L80.8991 138.443L84.3028 137.842ZM61.178 148.153C58.2749 150.055 57.1737 153.459 58.375 155.962C58.6753 154.06 60.0768 152.058 62.5795 150.856C65.0822 149.655 67.8852 149.154 70.1877 149.755C70.0876 149.455 69.8873 149.355 69.7872 149.054C68.5859 147.252 66.1834 146.552 63.7808 146.952C63.7808 146.852 63.6807 146.852 63.6807 146.652C62.5795 144.95 60.1769 144.249 57.9746 144.85C57.9746 144.75 57.8745 144.549 57.8745 144.449C56.7733 142.748 54.5709 142.247 52.4687 142.748C52.4687 142.647 52.3686 142.447 52.3686 142.447C51.2674 140.946 49.2653 140.345 47.2631 140.946C47.2631 140.846 47.163 140.645 47.163 140.645C45.7615 138.543 42.7583 138.243 40.2556 139.945C38.0533 141.446 37.0522 144.149 38.0533 146.151C38.1534 144.65 39.4548 143.048 41.3568 141.947C43.1587 140.946 45.0608 140.745 46.9628 140.946C46.3622 141.046 45.9617 141.346 45.5613 141.646C43.3589 143.148 42.3579 145.851 43.3589 147.853C43.4591 146.351 44.7604 144.75 46.6625 143.649C48.4644 142.647 50.5667 142.447 52.3686 142.647C51.7679 142.748 51.2674 143.048 50.6668 143.448C48.1641 145.15 47.163 148.053 48.1641 150.256C48.2642 148.554 49.6657 146.952 51.7679 145.851C53.67 144.85 55.9724 144.449 57.8745 144.75C57.2738 144.85 56.7733 145.15 56.1727 145.551C53.5699 147.352 52.5688 150.456 53.67 152.658C53.7701 150.956 55.1716 149.154 57.5742 147.953C59.4762 146.952 61.7787 146.552 63.7808 146.852C62.5795 147.352 61.8788 147.553 61.178 148.153ZM257.788 166.773L242.172 172.579V160.667L266.898 151.357C267.599 157.764 263.895 164.671 257.788 166.773ZM112.133 221.832L71.2888 237.249C77.7958 227.338 92.7118 219.029 110.531 210.82C110.13 214.024 110.731 218.328 112.133 221.832ZM266.097 137.842L268.6 147.853L270.802 147.152L281.614 169.576L278.01 170.778L286.719 179.487L290.023 179.387L286.419 169.376L269.501 138.343L266.097 137.842ZM289.222 148.153C292.025 150.055 293.226 153.459 292.025 155.962C291.725 154.06 290.323 152.058 287.821 150.856C285.318 149.655 282.515 149.154 280.212 149.755C280.313 149.455 280.513 149.355 280.613 149.054C281.814 147.252 284.217 146.552 286.619 146.952C286.619 146.852 286.719 146.852 286.719 146.652C287.821 144.95 290.223 144.249 292.426 144.85C292.426 144.75 292.526 144.549 292.526 144.449C293.627 142.748 295.829 142.247 297.931 142.748C297.931 142.647 298.032 142.447 298.032 142.447C299.033 140.946 301.135 140.345 303.137 140.946C303.137 140.846 303.237 140.645 303.237 140.645C304.639 138.543 307.642 138.243 310.145 139.945C312.347 141.446 313.348 144.149 312.347 146.151C312.247 144.65 310.945 143.048 309.043 141.947C307.241 140.946 305.139 140.745 303.437 140.946C304.038 141.046 304.438 141.346 304.839 141.646C307.041 143.148 308.042 145.851 307.041 147.853C306.941 146.351 305.64 144.75 303.738 143.649C301.936 142.647 299.833 142.447 298.032 142.647C298.632 142.748 299.133 143.048 299.733 143.448C302.236 145.15 303.237 148.053 302.236 150.256C302.136 148.554 300.734 146.952 298.632 145.851C296.73 144.85 294.428 144.449 292.526 144.75C293.126 144.85 293.627 145.15 294.227 145.551C296.83 147.352 297.831 150.456 296.73 152.658C296.63 150.956 295.229 149.154 292.826 147.953C290.924 146.952 288.621 146.552 286.619 146.852C287.821 147.352 288.521 147.553 289.222 148.153Z" fill="#A6A8AB"/>
<path fill-rule="evenodd" clip-rule="evenodd" d="M109.73 162.969L86.9056 154.36C87.6064 156.562 89.4083 159.466 93.1123 160.767L109.83 166.974V162.969H109.73ZM77.7959 232.744C82.5009 226.738 93.813 219.63 110.331 212.122C110.331 213.623 110.431 215.225 110.731 216.527C97.2167 222.333 91.1102 225.436 77.7959 232.744ZM274.206 233.445C269.501 227.438 258.189 220.331 241.771 212.823C241.671 214.324 241.471 215.926 241.171 217.227C254.685 222.933 260.992 226.137 274.206 233.445ZM242.372 162.369L265.297 153.759C264.596 155.962 262.794 158.865 259.09 160.166L242.372 166.373V162.369Z" fill="white"/>
<path d="M144.868 89.0902H158.582V106.008H150.273V100.603H146.97L145.268 119.523C146.77 119.523 148.872 119.423 150.273 119.423V112.515L158.782 112.415C158.782 118.622 158.782 124.929 158.782 131.135L143.466 131.736C142.865 131.736 142.365 131.736 141.764 131.736C136.058 131.135 133.555 126.43 134.156 121.024L136.759 95.5972C137.259 90.8922 140.563 89.0902 144.868 89.0902ZM70.0875 146.452L76.8948 135.24L76.9949 134.939H77.2953L88.5073 134.138L89.5083 134.038L89.208 135.039L86.3049 145.851L98.9184 144.349V144.249H99.3188C115.036 142.748 130.752 141.747 146.269 141.146C145.668 141.546 145.068 142.147 144.467 142.547C129.551 143.148 114.735 144.049 99.8194 145.451V145.551H99.4189L85.2037 147.353L84.2026 147.453L84.503 146.452L87.4061 135.64L77.3954 136.341L71.0886 147.152L70.0875 146.452ZM205.533 141.046C225.154 141.747 244.775 143.248 264.095 145.951L252.983 101.904H256.988L281.214 145.951L279.412 146.652L256.087 103.005H254.885L265.997 147.353C246.576 144.75 227.056 143.148 207.435 142.347C206.734 142.047 206.233 141.646 205.533 141.046ZM291.825 142.147L293.627 141.446L260.391 89.0902H239.969L250.08 137.042C231.06 135.54 211.839 134.539 192.519 134.138C193.72 134.539 194.921 135.14 196.122 135.54C214.742 135.94 233.262 136.941 251.882 138.443L251.782 137.442L241.771 90.2915H259.59L291.825 142.147ZM155.879 135.54C156.981 134.939 158.282 134.539 159.483 134.138C139.862 134.539 120.241 135.54 100.42 137.342L110.731 89.0902H91.2101L58.9756 141.246L58.375 142.247L59.7765 142.848L92.1111 90.4917H109.029L98.9184 137.742L98.8183 138.543L99.8194 138.443C118.439 136.841 137.259 135.94 155.879 135.54ZM94.4136 101.804L97.3167 101.904L91.6106 123.627L82.3006 124.428L94.4136 101.804ZM95.8151 103.406L90.7096 122.426L84.9034 123.027L95.1143 103.205L95.8151 103.406ZM111.932 100.502L107.528 121.625L105.325 121.925L102.823 134.839C109.029 134.239 115.436 133.638 121.843 133.137L123.545 120.624C121.843 120.724 120.341 120.724 118.64 120.924L118.94 119.423L125.447 118.722C129.351 118.422 132.354 118.021 133.055 113.016L134.857 98.8006C135.257 95.2969 134.957 92.9944 133.756 91.3927C132.554 89.6909 130.252 88.9901 127.249 88.9901H112.633L110.13 100.502H111.932ZM123.445 109.512L120.642 109.812L122.143 100.603H124.646L123.445 109.512ZM162.687 100.502H160.584V89.0902H186.312V103.506H178.504V100.402H172.898V105.207C175.4 105.207 177.202 105.207 179.705 105.207V114.117H172.898V119.022C174.399 119.022 176.902 119.022 178.504 119.022V115.919H186.712V117.32V131.035C178.504 130.735 168.593 130.735 160.484 131.135C160.484 127.131 160.484 123.027 160.484 119.022H162.687V100.502ZM188.915 89.0902V131.035C192.519 131.035 196.122 131.335 199.726 131.436V115.418H203.33C203.33 120.824 203.33 126.23 203.33 131.536C206.934 131.636 210.438 131.936 214.042 132.136L213.942 89.0902H203.33V104.407H199.726V89.0902H188.915ZM215.944 119.923V132.136C219.848 132.236 224.152 132.737 228.057 132.937L228.857 123.327L232.762 123.627L233.863 133.538L234.964 133.638C239.169 133.938 243.473 134.439 247.578 134.739L245.075 121.825L243.173 121.725L236.666 89.0902H219.047L217.345 100.502H220.448C219.848 107.009 219.347 113.616 218.546 120.123L215.944 119.923ZM229.258 112.716H231.46L230.459 103.506H229.658L229.258 112.716Z" fill="#EC1C24"/>
<path d="M144.868 90.4916C141.264 90.4916 138.661 91.8931 138.161 95.7973L135.558 121.225C134.857 127.431 138.461 130.635 143.466 130.434L157.381 129.834C157.381 124.528 157.381 119.122 157.381 113.817C154.979 113.817 154.078 113.817 151.675 113.917C151.675 116.519 151.675 118.221 151.675 120.724C149.473 120.724 145.969 120.824 143.767 121.024L145.669 99.301C147.571 99.301 149.673 99.301 151.675 99.301C151.675 101.203 151.675 102.805 151.675 104.707C153.878 104.707 154.979 104.707 157.381 104.707C157.381 100.002 157.381 95.2968 157.381 90.4916C152.977 90.4916 149.373 90.4916 144.868 90.4916ZM94.4139 101.804L97.317 101.904L91.6109 123.627L82.3009 124.428L94.4139 101.804ZM146.67 140.946C130.953 141.546 115.436 142.447 99.7196 144.049H99.3192V144.149L86.7057 145.651L89.6088 134.839L89.9091 133.838L88.908 133.938L77.696 134.739H77.3957L77.2956 135.039L70.4883 146.251L60.0771 142.347L92.2115 90.1913H109.13L98.8186 137.742L98.7185 138.543L99.7196 138.443C118.64 136.741 137.36 135.84 155.98 135.24C152.676 136.841 149.673 138.843 146.67 140.946ZM291.825 142.147L259.391 90.3915H241.571L251.582 137.542L251.682 138.543C233.162 137.041 214.542 136.04 195.923 135.64C199.226 137.142 202.43 139.144 205.333 141.246C224.954 141.947 244.575 143.448 263.895 146.151L252.783 102.104H256.788L281.014 146.151L291.825 142.147ZM111.833 99.1008H113.634L108.629 122.826L106.427 123.127L104.525 133.137C111.432 132.537 114.535 132.136 120.642 131.736L121.843 122.025C120.342 122.125 117.839 122.326 116.938 122.326L117.739 118.121L123.946 117.42C127.85 117.02 131.053 117.32 131.554 112.715L133.255 98.7004C133.956 92.5939 132.254 90.4916 126.849 90.4916C122.244 90.4916 118.139 90.4916 113.334 90.4916L111.833 99.1008ZM126.248 99.1008L120.942 99.2009L118.94 111.214L124.546 110.613L126.248 99.1008ZM161.886 99.1008C162.487 99.1008 163.388 99.1008 163.988 99.1008C163.988 106.509 163.988 112.816 163.988 120.324H161.786V129.634C168.994 129.533 178.003 129.233 185.311 129.533C185.311 125.229 185.311 121.425 185.311 117.12C182.909 117.12 182.208 117.12 179.905 117.12C179.905 118.522 179.905 118.922 179.905 120.223C177.703 120.223 173.799 120.223 171.597 120.223C171.597 117.821 171.597 115.118 171.597 112.615C173.499 112.615 176.302 112.615 178.404 112.615C178.404 110.213 178.404 108.911 178.404 106.509C176.502 106.509 173.499 106.509 171.597 106.509C171.597 104.006 171.597 101.503 171.597 99.0007C173.098 99.0007 178.304 99.0007 179.905 99.0007C179.905 100.502 179.905 100.402 179.905 102.104C182.108 102.104 182.708 102.104 184.911 102.104C184.911 97.8995 184.911 94.596 184.911 90.3915C177.803 90.3915 168.894 90.3915 161.886 90.3915C161.886 93.0944 161.886 96.3979 161.886 99.1008ZM190.317 129.634V90.4916C192.919 90.4916 195.622 90.4916 198.425 90.4916C198.425 95.5971 198.425 100.602 198.425 105.808C199.927 105.808 203.13 105.808 204.632 105.808C204.632 100.703 204.632 95.497 204.632 90.4916H212.54V121.225V130.635C209.938 130.534 207.435 130.234 204.632 130.234C204.632 124.928 204.632 119.423 204.632 114.117C203.13 114.117 199.927 114.117 198.425 114.117C198.425 119.423 198.425 124.828 198.425 130.134C195.622 129.834 193.12 129.634 190.317 129.634ZM217.346 121.325H219.848C220.649 114.117 221.25 106.409 222.051 99.1008H219.248L220.449 90.4916H235.565L242.072 122.926L243.974 123.026L245.876 133.037C242.372 132.737 238.468 132.336 235.064 132.036L233.963 122.125L227.556 121.725L226.756 131.335C223.652 131.235 220.249 130.735 217.346 130.635C217.145 128.032 217.346 124.128 217.346 121.325ZM233.062 114.117L227.957 114.017L228.658 102.204H231.961L233.062 114.117Z" fill="white"/>
<path fill-rule="evenodd" clip-rule="evenodd" d="M176.001 228.64C202.83 228.64 224.753 206.716 224.753 179.887C224.753 153.059 202.83 131.135 176.001 131.135C149.172 131.135 127.249 153.059 127.249 179.887C127.249 206.816 149.172 228.64 176.001 228.64Z" fill="#231F20"/>
<path fill-rule="evenodd" clip-rule="evenodd" d="M176.001 225.736C201.128 225.736 221.75 205.114 221.75 179.987C221.75 154.861 201.228 134.239 176.001 134.239C150.774 134.239 130.252 154.861 130.252 179.987C130.352 205.114 150.874 225.736 176.001 225.736Z" fill="white" stroke="#231F20" stroke-width="0.1172" stroke-miterlimit="22.9256"/>
<path fill-rule="evenodd" clip-rule="evenodd" d="M142.665 158.965C137.96 158.965 132.354 162.869 130.552 171.779C132.254 159.866 140.663 146.351 153.377 139.544C152.275 141.346 152.275 142.848 153.076 144.55C148.071 148.254 144.467 152.858 142.665 158.965Z" fill="#E6E7E8"/>
<path fill-rule="evenodd" clip-rule="evenodd" d="M175.901 179.687C171.696 175.082 167.792 170.277 164.389 165.071C166.191 159.966 169.794 155.661 175 151.957C181.807 151.657 187.614 153.659 192.519 157.664C195.122 163.47 195.021 168.876 193.62 174.181C187.814 176.484 182.008 178.286 175.901 179.687Z" fill="#231F20"/>
<path fill-rule="evenodd" clip-rule="evenodd" d="M164.189 165.072C158.883 165.672 153.577 166.573 148.472 169.276C145.869 166.173 143.767 162.869 142.465 158.965C147.07 144.75 159.584 138.543 168.894 142.447C171.396 145.25 173.098 148.654 174.6 152.058C170.095 155.461 166.291 159.666 164.189 165.072Z" fill="#F1F1F2"/>
<path fill-rule="evenodd" clip-rule="evenodd" d="M142.766 186.494C139.662 185.794 136.959 186.094 134.457 186.394C132.355 183.892 130.152 180.788 130.252 175.783C130.252 174.682 130.252 173.38 130.553 172.279C130.853 170.778 131.253 169.376 131.654 167.975C134.056 161.968 138.361 159.065 142.766 158.965C143.867 162.669 145.869 166.073 148.772 169.276C144.768 174.582 142.666 180.088 142.766 186.494Z" fill="#231F20"/>
<path fill-rule="evenodd" clip-rule="evenodd" d="M148.672 169.176C153.277 166.773 158.683 165.572 164.389 164.971C167.893 170.077 171.797 174.982 175.901 179.587C173.499 185.193 171.897 190.799 170.595 196.405C164.189 198.908 158.482 199.508 152.676 199.708C146.67 195.504 143.767 191.099 142.766 186.394C142.666 180.388 144.768 174.682 148.672 169.176Z" fill="#F1F1F2"/>
<path fill-rule="evenodd" clip-rule="evenodd" d="M134.457 186.194C130.953 182.19 129.351 177.585 130.452 172.179C130.052 174.782 129.751 177.485 129.751 180.088C129.751 188.396 132.154 196.305 136.859 203.813C134.757 198.507 133.656 192.601 134.457 186.194Z" fill="#D0D2D3"/>
<path fill-rule="evenodd" clip-rule="evenodd" d="M134.456 186.194C136.959 185.894 139.762 185.894 142.765 186.294C144.267 192.1 147.671 196.605 152.676 199.608C151.875 205.715 152.676 210.02 155.079 213.123C148.171 215.525 142.165 212.122 136.859 203.813C134.657 198.307 133.455 192.501 134.456 186.194Z" fill="#E6E7E8"/>
<path fill-rule="evenodd" clip-rule="evenodd" d="M152.676 199.709C159.583 199.408 165.49 198.507 170.595 196.405C173.498 201.31 177.502 205.615 182.408 209.319C178.704 215.525 175.6 219.029 173.198 219.229C164.689 219.93 159.683 216.827 154.978 213.223C152.676 210.12 151.875 205.515 152.676 199.709Z" fill="#231F20"/>
<path fill-rule="evenodd" clip-rule="evenodd" d="M147.671 213.423C148.772 218.128 154.879 221.031 162.387 223.534C170.195 226.037 178.504 225.937 179.505 223.534C176.602 222.833 174.9 221.131 173.398 219.229C167.592 219.53 161.686 218.429 155.179 213.223C152.576 214.024 150.073 214.124 147.671 213.423Z" fill="#BBBDBF"/>
<path fill-rule="evenodd" clip-rule="evenodd" d="M147.671 213.423C145.468 212.723 141.965 210.62 138.761 206.616C141.264 210.52 147.471 216.026 151.175 218.329C149.373 216.927 148.071 215.425 147.671 213.423Z" fill="#231F20"/>
<path fill-rule="evenodd" clip-rule="evenodd" d="M175.801 179.587C182.007 178.386 187.914 176.484 193.62 174.181C198.025 177.485 201.729 181.589 204.431 186.294C204.532 192.501 203.23 198.507 199.026 203.813C193.92 206.616 188.715 208.918 182.508 209.419C178.103 205.915 173.999 201.611 170.695 196.505C171.596 191.099 173.298 185.393 175.801 179.587Z" fill="#D0D2D3"/>
<path fill-rule="evenodd" clip-rule="evenodd" d="M173.298 219.129C176.602 218.529 179.505 214.024 182.508 209.219C188.615 208.818 194.021 206.616 199.026 203.613C201.128 206.416 203.631 208.018 206.234 209.419C205.533 213.824 203.631 217.528 194.121 221.632C185.612 225.736 177.303 225.436 173.298 219.129Z" fill="#929497"/>
<path fill-rule="evenodd" clip-rule="evenodd" d="M170.595 225.336C174.499 225.436 178.404 225.436 179.204 223.834C183.209 224.835 186.712 224.535 189.816 223.534C185.211 224.936 180.606 225.736 176.101 225.736C174.199 225.736 172.397 225.536 170.595 225.336Z" fill="#231F20"/>
<path fill-rule="evenodd" clip-rule="evenodd" d="M204.231 186.194C208.536 185.794 212.14 184.092 215.243 181.789C224.653 190.799 212.04 210.32 206.033 209.719C203.13 208.218 200.728 206.216 198.826 203.913C202.83 198.708 204.632 192.901 204.231 186.194Z" fill="#231F20"/>
<path fill-rule="evenodd" clip-rule="evenodd" d="M199.626 219.029C203.23 216.627 205.032 214.324 206.133 209.719C209.837 209.819 216.144 202.812 218.046 194.703C218.447 194.703 219.047 194.703 219.448 194.803C216.344 204.113 209.938 212.222 199.626 219.029Z" fill="#6D6E70"/>
<path fill-rule="evenodd" clip-rule="evenodd" d="M193.52 174.281C194.921 168.976 194.621 163.47 192.418 157.764C195.221 154.961 198.825 153.459 202.83 152.858C210.738 156.062 214.042 160.266 215.243 164.771C217.145 173.48 216.745 178.286 215.343 181.689C212.14 184.292 208.536 185.894 204.331 186.094C201.728 181.489 198.024 177.585 193.52 174.281Z" fill="#BBBDBF"/>
<path fill-rule="evenodd" clip-rule="evenodd" d="M218.046 194.703C218.847 189.998 218.847 185.493 215.243 181.789C216.745 178.586 216.645 172.78 215.143 164.871C216.545 164.271 217.646 163.37 218.647 162.068C223.352 174.181 222.951 184.893 219.448 194.703C218.947 194.803 218.547 194.703 218.046 194.703Z" fill="#808184"/>
<path fill-rule="evenodd" clip-rule="evenodd" d="M174.8 152.058C173.298 148.554 171.596 145.25 169.094 142.447C171.596 136.741 178.504 135.64 188.314 138.443C199.026 141.546 203.731 146.552 202.93 152.858C198.926 153.559 195.322 154.961 192.519 157.764C187.413 153.659 181.707 151.457 174.8 152.058Z" fill="#DBDCDD"/>
<path fill-rule="evenodd" clip-rule="evenodd" d="M202.83 152.858C203.23 149.355 202.029 146.051 197.924 142.848C199.326 142.147 201.028 142.047 203.23 142.447C209.937 148.053 215.443 154.26 218.546 162.168C217.445 163.57 216.344 164.371 215.043 164.971C213.941 159.666 209.837 155.661 202.83 152.858Z" fill="#231F20"/>
<path fill-rule="evenodd" clip-rule="evenodd" d="M198.025 142.748C192.018 139.144 185.812 136.941 179.004 136.941C177.903 135.24 175.801 134.339 173.298 133.438C184.01 132.837 194.021 135.54 203.23 142.347C201.228 141.847 199.526 142.147 198.025 142.748Z" fill="#A6A8AB"/>
<path fill-rule="evenodd" clip-rule="evenodd" d="M153.077 144.55C152.276 142.848 152.076 141.246 153.377 139.544C159.183 135.94 165.89 133.938 173.498 133.538C175.901 134.339 177.903 135.34 179.104 137.041C174.099 137.041 170.796 138.843 169.194 142.447C164.189 140.645 159.083 140.645 153.077 144.55Z" fill="#231F20"/>
<path fill-rule="evenodd" clip-rule="evenodd" d="M175.801 179.587C182.007 178.386 187.914 176.484 193.62 174.181H193.72C187.313 178.486 176.502 179.287 176.802 182.49C177.102 185.593 175.1 190.799 172.597 194.903C170.795 197.807 180.906 206.716 182.508 209.219C178.103 205.715 173.999 201.41 170.695 196.305C171.596 191.099 173.298 185.393 175.801 179.587Z" fill="white"/>
<path fill-rule="evenodd" clip-rule="evenodd" d="M193.42 174.281C198.024 177.585 201.528 181.689 204.231 186.394C204.932 191.8 203.03 198.607 198.825 203.913C193.82 206.716 188.514 209.019 182.408 209.519C203.23 206.015 208.736 187.195 193.42 174.281Z" fill="#808184"/>
<path fill-rule="evenodd" clip-rule="evenodd" d="M204.832 153.659C211.339 156.763 214.242 160.467 215.243 164.771C217.145 173.481 216.745 178.286 215.343 181.689C212.44 184.192 208.936 185.694 205.232 186.094C218.146 182.09 216.244 175.683 213.942 165.772C213.141 162.168 209.537 156.763 204.832 153.659Z" fill="#808184"/>
<path fill-rule="evenodd" clip-rule="evenodd" d="M193.52 174.281C194.921 168.976 194.621 163.47 192.418 157.764C194.32 155.862 196.823 154.56 199.626 153.559C197.524 154.36 194.22 157.263 194.22 158.464C194.22 159.566 195.922 162.469 195.722 164.471C195.622 167.274 195.422 169.777 196.523 172.98C198.225 178.286 205.232 182.19 204.331 186.494C201.428 181.689 198.024 177.585 193.52 174.281Z" fill="white"/>
<path fill-rule="evenodd" clip-rule="evenodd" d="M218.046 194.703C218.847 189.998 218.847 185.493 215.243 181.789C216.645 178.486 216.645 172.78 215.143 164.871C219.548 173.18 216.144 178.786 216.645 181.389C216.745 182.19 221.95 189.598 218.046 194.703Z" fill="#BBBDBF"/>
<path fill-rule="evenodd" clip-rule="evenodd" d="M173.398 219.129C176.602 218.429 179.405 213.824 182.408 209.219C188.515 208.818 193.82 206.616 198.926 203.613C201.028 206.416 203.531 208.018 206.133 209.419C203.531 209.019 201.028 207.917 199.426 205.815C194.421 208.718 189.015 210.821 182.909 211.421C180.506 215.526 177.603 218.629 173.398 219.129Z" fill="#BBBDBF"/>
<path fill-rule="evenodd" clip-rule="evenodd" d="M205.332 212.322C203.931 215.926 201.729 218.429 194.12 221.932C187.013 225.136 180.105 225.436 175.601 221.832C180.306 223.934 187.313 222.933 194.521 219.63C200.227 216.827 203.43 214.624 205.332 212.322Z" fill="#6D6E70"/>
<path fill-rule="evenodd" clip-rule="evenodd" d="M204.231 186.194C208.236 185.794 211.739 184.292 214.643 182.19C212.741 185.493 206.534 186.895 206.534 187.996C206.834 191.3 206.434 193.102 205.733 195.905C204.932 198.507 203.631 200.91 201.729 203.413C200.728 204.514 203.13 207.317 206.033 209.619C202.83 208.118 200.628 206.015 198.826 203.813C202.73 198.607 204.532 192.801 204.231 186.194Z" fill="#58595B"/>
<path fill-rule="evenodd" clip-rule="evenodd" d="M175.901 179.687C171.696 175.082 167.792 170.277 164.389 165.072C166.191 159.966 169.794 155.661 175 151.958C175.601 151.958 176.201 151.958 176.802 151.958C160.785 162.669 166.391 168.876 177.603 179.187C176.902 179.387 176.402 179.587 175.901 179.687Z" fill="#58595B"/>
<path fill-rule="evenodd" clip-rule="evenodd" d="M148.672 169.176C151.875 167.474 155.479 166.373 159.383 165.672C156.58 166.673 153.978 167.774 151.575 169.176C147.671 171.578 143.466 180.288 144.067 186.294C144.768 192.701 149.072 195.904 152.576 199.809C147.471 196.906 143.667 191.199 142.666 186.494C142.666 180.388 144.768 174.682 148.672 169.176Z" fill="#D0D2D3"/>
<path fill-rule="evenodd" clip-rule="evenodd" d="M167.392 169.576C167.993 170.177 175.301 179.187 175.701 179.687C173.298 185.293 171.697 190.899 170.395 196.505C163.988 199.008 158.282 199.608 152.476 199.809C162.587 197.706 168.894 196.705 171.797 187.996C174.8 179.687 172.297 177.485 167.392 169.576Z" fill="#BBBDBF"/>
<path fill-rule="evenodd" clip-rule="evenodd" d="M152.676 199.709C159.584 199.408 165.49 198.507 170.595 196.405C172.798 200.109 175.601 203.513 179.105 206.516C174.099 202.612 171.997 201.21 169.194 200.009C165.59 198.307 156.681 201.21 155.479 203.112C154.078 205.014 152.977 207.717 155.579 213.523C155.479 213.423 155.279 213.223 155.179 213.223C152.676 210.12 151.875 205.515 152.676 199.709Z" fill="#58595B"/>
<path fill-rule="evenodd" clip-rule="evenodd" d="M147.571 167.875C145.368 165.272 143.867 162.168 142.666 158.865C146.369 146.452 156.58 140.245 165.19 141.346C151.475 141.646 139.762 155.762 147.571 167.875Z" fill="#E6E7E8"/>
<path fill-rule="evenodd" clip-rule="evenodd" d="M164.188 165.071C163.788 165.071 159.984 165.672 159.583 165.672C163.187 165.071 164.889 161.367 167.392 157.764C172.297 150.556 173.899 152.658 169.594 143.148C171.696 145.751 173.298 148.754 174.6 151.857C170.095 155.461 166.291 159.666 164.188 165.071Z" fill="#D0D2D3"/>
<path fill-rule="evenodd" clip-rule="evenodd" d="M152.676 200.009C151.875 206.015 152.776 210.32 155.079 213.223C148.171 215.626 142.165 212.222 136.859 203.913C136.159 202.211 133.255 194.903 134.457 186.394C134.757 192.201 135.958 196.805 137.56 200.309C141.264 209.018 147.27 211.721 149.273 210.72C151.175 209.619 149.673 205.415 152.676 200.009Z" fill="#BBBDBF"/>
<path fill-rule="evenodd" clip-rule="evenodd" d="M147.671 213.423C148.071 215.225 149.173 216.627 150.774 218.028C148.972 214.725 152.276 214.124 155.379 215.425C159.383 217.127 165.29 219.73 170.095 219.33C165.79 218.729 161.586 218.328 155.079 213.223C152.576 214.024 150.073 214.124 147.671 213.423Z" fill="#E6E7E8"/>
<path fill-rule="evenodd" clip-rule="evenodd" d="M155.279 220.831C157.381 221.832 159.684 222.733 162.386 223.634C170.195 226.137 178.504 226.137 179.305 223.734C176.201 222.733 174.9 221.132 173.198 219.129C172.497 219.129 170.095 219.129 169.294 219.129C172.597 220.831 172.998 222.233 172.397 223.034C170.896 224.535 164.789 224.135 159.183 222.333C157.781 221.832 156.58 221.432 155.279 220.831Z" fill="#6D6E70"/>
<path fill-rule="evenodd" clip-rule="evenodd" d="M174.8 152.058C185.111 150.656 187.213 156.262 197.224 153.159C203.33 151.257 195.822 140.946 185.111 137.842C184.31 137.542 183.609 137.442 182.708 137.242C184.51 137.542 186.312 137.942 188.314 138.443C199.026 141.546 203.731 146.552 202.93 152.858C198.926 153.559 195.322 154.961 192.519 157.764C187.413 153.659 181.707 151.857 174.8 152.058Z" fill="#929497"/>
<path fill-rule="evenodd" clip-rule="evenodd" d="M142.665 158.965C140.463 158.965 137.96 159.766 135.758 161.768C137.259 159.866 139.262 158.965 141.164 157.864C143.967 156.162 143.967 152.558 145.769 150.256C147.47 148.053 149.472 146.652 151.375 144.249C151.975 143.448 151.975 141.446 152.876 140.245C152.075 141.746 152.175 143.148 152.876 144.65C148.071 148.153 144.467 152.858 142.665 158.965Z" fill="white"/>
<path fill-rule="evenodd" clip-rule="evenodd" d="M134.457 186.194C136.959 185.894 139.762 185.894 142.765 186.294C144.267 192.1 147.671 196.605 152.676 199.608V199.709C147.771 197.506 143.666 194.002 141.664 188.997C140.763 186.594 137.26 187.095 134.457 186.194Z" fill="white"/>
<path d="M121.543 262.075C121.543 266.28 121.543 270.284 121.543 274.489C123.345 275.289 125.247 275.99 127.149 276.691C127.149 274.589 127.149 272.486 127.149 270.484C128.15 270.885 129.051 271.185 130.052 271.585C130.052 276.991 130.052 282.597 130.052 288.003C128.851 287.603 127.65 287.202 126.548 286.802C126.548 288.704 126.548 290.806 126.548 292.808C131.554 294.51 136.559 295.912 141.464 297.013C141.464 295.111 141.464 293.109 141.464 291.307C140.363 291.006 139.062 290.706 137.961 290.506C137.961 285.1 137.961 279.794 137.961 274.389C138.962 274.689 139.863 274.989 140.864 275.189C140.864 277.292 140.864 279.194 140.864 281.296C142.666 281.696 144.568 282.097 146.47 282.497C146.47 278.593 146.47 274.689 146.47 270.785C138.061 268.382 129.852 265.579 121.543 262.075ZM162.086 282.397C161.085 279.194 159.984 275.89 158.983 272.687C156.08 272.286 153.177 271.886 150.074 271.485C150.074 273.387 150.074 275.189 150.074 277.192C151.075 277.292 151.875 277.492 152.877 277.592C154.678 282.297 156.58 287.202 158.483 291.907C158.182 292.608 157.882 293.309 157.682 294.01C156.28 293.909 155.079 293.709 153.677 293.609C153.677 295.511 153.677 297.313 153.677 299.315C156.981 299.716 160.184 300.016 163.588 300.316C166.091 293.409 168.593 286.401 171.196 279.494C171.997 279.494 172.998 279.494 173.799 279.494C173.799 277.692 173.799 275.79 173.799 273.888C170.896 273.888 168.093 273.788 165.19 273.588C164.389 276.291 163.288 279.394 162.086 282.397C162.287 282.397 162.086 282.397 162.086 282.397ZM178.904 279.094C178.904 277.292 178.904 275.39 178.904 273.488C186.012 273.187 192.219 272.486 199.326 271.585C199.326 273.488 199.326 275.289 199.326 277.292C198.625 277.392 198.125 277.592 197.424 277.592C197.424 282.898 197.424 288.203 197.424 293.409C198.125 293.309 198.625 293.309 199.326 293.109C199.326 295.011 199.326 296.812 199.326 298.815C196.123 299.215 192.819 299.616 189.616 299.916C189.616 292.808 189.616 285.701 189.616 278.693C189.215 278.693 189.616 278.793 189.316 278.793C187.113 285.901 185.111 293.109 182.909 300.316C178.604 300.617 181.107 300.416 177.603 300.617C175.801 300.617 174.099 300.617 172.297 300.617C172.297 298.815 172.297 296.913 172.297 295.011C173.799 295.011 175.2 295.011 176.702 295.011C178.404 289.705 179.905 284.599 181.607 279.294C180.806 279.094 179.905 279.094 178.904 279.094ZM205.933 291.907C204.932 292.007 204.031 292.308 203.03 292.508C203.03 294.41 203.03 296.212 203.03 298.214C206.234 297.613 209.537 297.013 212.741 296.312C213.041 293.909 213.441 291.607 213.742 289.405C215.443 289.004 216.945 288.404 218.647 288.003C218.947 290.205 219.348 292.308 219.648 294.51C222.851 293.509 226.155 292.408 229.358 291.206C229.358 289.304 229.358 287.202 229.358 285.2C228.357 285.6 227.456 285.901 226.555 286.301C225.554 281.196 224.653 275.99 223.652 270.885C224.353 270.584 225.154 270.284 225.855 270.084C225.855 268.182 225.855 266.18 225.855 264.077C219.448 266.58 213.241 268.682 206.834 270.484C206.834 272.386 206.834 274.389 206.834 276.19C207.535 276.09 208.336 275.79 209.037 275.59C207.835 280.795 206.934 286.301 205.933 291.907ZM218.046 283.098C216.845 283.498 215.544 283.799 214.442 284.199C215.043 280.195 215.644 275.99 216.244 271.986C216.745 275.59 217.346 279.394 218.046 283.098Z" fill="#EC1C24"/>
<path d="M225.654 54.5532L222.151 62.4616H222.051V54.5532H215.544V58.157H217.346V68.4681H215.544V72.172H222.251V65.3648H224.854V72.172H231.561V68.4681H229.659V62.2614H227.056L228.858 58.2571H231.06V54.6533L225.654 54.5532ZM120.942 58.4574H122.744V68.7684H120.942V72.3723H127.65V58.4574H130.152V72.3723H136.859V68.6683H134.957V58.4574H136.759V54.8535H120.942V58.4574ZM185.311 56.5553C185.311 54.4531 183.509 53.9525 181.707 53.9525H178.204V52.2507H180.606V48.5468H170.996V52.1506H173.499V53.8524H169.995C168.093 53.8524 166.391 54.4531 166.391 56.4552L166.291 65.4649C166.291 67.9675 167.692 68.7684 170.195 68.7684H173.499V70.5703H170.996V74.2743H180.606V70.5703H178.204V68.7684H181.507C183.91 68.7684 185.411 67.9675 185.411 65.4649L185.311 56.5553ZM180.606 65.2646H178.204V56.7555H180.606V65.2646ZM173.499 65.2646H170.996V56.7555H173.399V65.2646H173.499Z" fill="#FFF100"/>
<path d="M94.1134 102.004L97.1167 102.104L91.5107 123.827L82.1006 124.628L94.1134 102.004Z" fill="#EC1C24"/>
<path d="M95.5152 103.406L90.4097 122.526L84.6035 123.127L94.8144 103.406H95.5152Z" fill="#231F20"/>
<path d="M126.248 99.1008L121.142 99.2009L119.04 111.214L124.646 110.713L126.248 99.1008Z" fill="#EC1C24"/>
<path d="M123.445 109.512L120.742 109.612L122.243 100.603L124.746 100.502L123.445 109.512Z" fill="#231F20"/>
<path d="M233.062 114.117L227.856 113.917L228.557 102.104L231.961 102.304L233.062 114.117Z" fill="#EC1C24"/>
<path d="M229.258 112.715H231.461L230.66 103.506H229.859L229.258 112.715Z" fill="#231F20"/>
</svg>
