<?xml version="1.0" encoding="utf-8"?>
<svg viewBox="216 206.894 50 50" xmlns="http://www.w3.org/2000/svg">
  <path id="path56" d="M 259.83 229.771 C 258.47 230.667 257.319 231.166 257.319 231.166 L 257.333 234.005 C 258.305 234.856 259.264 235.56 259.981 236.844 C 261.343 234.922 261.081 232.094 259.83 229.771 M 258.724 239.065 C 258.724 239.065 258.447 237.894 257.266 236.801 L 254.572 236.853 C 254.572 236.853 250.941 239.302 248.725 239.359 C 248.725 239.359 249.945 241.14 250.563 242.071 C 251.781 241.861 253.925 241.107 254.789 240.318 C 254.789 240.318 255.36 241.762 255.253 243.468 C 256.465 242.917 258.135 241.421 258.724 239.065 M 255.253 233.938 L 255.248 231.109 C 255.248 231.109 253.637 230.704 251.919 229.658 C 248.469 230.067 244.291 232.791 244.291 232.791 C 244.291 232.791 245.702 234.893 247.246 237.161 C 249.961 237.459 253.962 234.768 255.253 233.938 M 264.456 245.717 L 262.235 243.788 C 261.602 249.002 258.348 253.43 252.369 256.517 L 251.457 253.705 C 246.382 256.581 237.674 258.446 230.194 255.127 C 231.123 251.408 231.948 247.64 230.178 243.129 C 226.036 248.162 222.37 250.134 222.37 250.134 C 219.571 246.447 219.823 239.049 220.658 236.871 L 216 238.003 C 216 235.517 218.281 230.244 221.585 227.281 L 218.676 226.915 L 218.673 226.915 C 220.65 223.746 223.601 221.014 227.211 218.961 L 227.216 218.959 C 226.132 220.302 226.117 223.618 229.293 224.88 C 227.944 223.024 227.781 220.732 229.191 219.544 C 230.599 218.347 232.969 218.758 234.482 219.686 C 234.032 218.651 232.712 217.348 230.735 217.26 L 230.732 217.26 C 234.466 215.752 238.706 214.903 243.19 214.903 C 244.028 214.903 244.863 214.932 245.681 214.99 L 245.681 214.99 C 246.983 215.401 248.898 216.843 249.791 217.74 C 249.791 217.74 249.853 216.683 249.105 215.405 C 253.961 216.333 256.279 217.884 257.25 218.632 C 257.448 220.28 258.077 221.268 258.907 222.834 C 257.333 221.451 253.38 219.22 251.492 218.686 C 251.492 218.686 251.337 220.114 250.688 220.8 C 246.929 218.671 245.083 218.135 245.083 218.135 C 240.957 218.599 238.302 219.849 236.858 220.83 L 238.116 221.671 C 235.629 222.271 234.013 223.947 234.013 223.947 C 234.032 223.978 236.236 224.224 236.236 224.224 C 236.236 224.224 236.011 226.256 239.252 227.53 C 242.031 228.621 246.023 227.267 249.782 228.45 C 247.311 226.211 245.602 225.21 245.602 225.21 C 245.602 225.21 244.619 225.05 243.928 225.054 C 243.064 225.058 241.776 225.192 240.365 224.76 C 239.689 224.553 238.902 224.187 238.283 223.883 C 238.283 223.883 240.019 222.484 242.556 222.176 C 242.556 222.176 244.844 222.681 246.657 223.733 C 247.861 222.813 249.118 222.842 249.118 222.842 C 249.118 222.842 247.871 223.753 248.248 224.859 C 250.057 226.124 252.021 227.937 252.021 227.937 C 254.021 227.078 258.37 227.275 259.263 228.089 C 258.132 226.936 256.501 225.975 255.239 225.153 C 255.084 224.721 253.707 223.218 253.474 223.078 C 253.474 223.078 254.783 223.394 255.954 224.218 C 256.289 223.842 256.917 223.46 257.773 223.291 C 258.653 223.871 258.81 224.76 258.787 224.908 C 258.391 225.28 257.998 225.432 257.998 225.432 L 260.119 227.234 L 260.332 225.942 C 265.217 231.417 267.88 237.752 264.455 245.717 M 225.873 211.068 C 228.691 212.081 230.499 213.359 230.83 213.554 C 230.681 212.983 230.125 210.234 229.806 208.527 C 231.447 209.421 235.257 211.495 236.511 212.169 C 237.021 210.935 238.791 206.902 238.791 206.902 C 238.791 206.902 241.991 210.965 242.538 211.625 C 243.206 211.077 247.028 207.738 248.018 206.894 C 248.183 208.815 248.408 211.562 248.466 211.974 C 248.657 211.771 250.12 210.16 252.573 208.677 C 251.51 210.32 251.003 212.589 250.777 214.411 C 248.363 213.883 245.816 213.599 243.193 213.599 C 238.152 213.599 233.419 214.639 229.327 216.465 C 228.583 214.704 227.418 212.514 225.873 211.068" style="fill:#3d195b"/>
</svg>