<?xml version="1.0" encoding="utf-8"?>
<svg viewBox="0 0.369 57.178 45.19" xmlns="http://www.w3.org/2000/svg">
  <defs>
    <style type="text/css">.st0{fill:#D20515;}
	.st1{fill:#FFFFFF;}</style>
  </defs>
  <g>
    <title>background</title>
    <rect fill="none" id="canvas_background" height="47" width="59" y="-1" x="-1"/>
  </g>
  <g>
    <title>Layer 1</title>
    <rect id="svg_1" height="46.3" width="57.9" class="st0" y="-0.122914" x="-0.246933"/>
    <path id="svg_2" d="m47.394389,24.491583c0,0.1 -0.1,0.2 -0.3,0.3l-0.1,0.1l0,0.1c0,0.1 0,0.1 -0.1,0.2l-0.2,0.1c-0.1,0 -0.2,0 -0.2,0l0,-0.1l-0.2,0.1l0,0.1c0,0.1 0,0.1 -0.1,0.2l-0.2,0.1c-0.1,0 -0.2,0 -0.2,0l0,-0.1c-0.7,0.4 -1.6,0.7 -2.4,1.1l0,0.1c0,0.1 0,0.1 -0.1,0.2l-0.2,0.1c-0.1,0 -0.2,0 -0.2,0l-0.1,-0.1l-0.3,0.1l0.1,0.1c0,0.1 0,0.1 -0.1,0.2l-0.2,0.1c-0.1,0 -0.2,0 -0.2,0l-0.1,-0.1c-0.4,0.2 -0.8,0.2 -1.1,-0.4c-0.1,-0.3 -0.1,-0.9 -0.2,-1.2c-0.1,-0.2 -0.3,-0.2 -0.3,-0.2c-3.8,-0.7 -5,0.1 -7.5,-0.5c-0.8,-0.2 -1.2,-0.9 -2.1,-0.9c-2,-0.1 -2.6,0 -4.9,-0.1c-0.1,0.3 -0.1,0.4 -0.1,0.4l-7.8,0l1.2,0.6l0.4,3.4c0,0 -0.3,0.1 -0.4,0.1c0.1,0.7 0.1,1.6 0.2,2.4c0,0.7 0.1,1.5 0.1,2c0,0.2 0,0.5 -0.2,0.9c-0.1,0.3 -0.4,0.5 -0.6,0.6c-0.1,0.1 -0.4,0.3 -0.7,0.5c-0.4,0.2 -0.8,0.4 -1,0.5c0,0.1 0.1,0.2 0.1,0.3c-4.7,2.3 -10.6,3 -12.5,6.7c-0.2,0.4 -1,0.2 -1,-0.3c0,-0.2 0,-0.5 0,-0.7l-0.1,0c-0.1,0 -0.1,-0.1 -0.1,-0.2l0,-0.2c0,-0.1 0.1,-0.2 0.1,-0.2l0.1,0c0,-0.2 0.1,-0.4 0.1,-0.6l-0.1,0c-0.1,0 -0.1,-0.1 0,-0.2l0.1,-0.2c0,-0.1 0.1,-0.2 0.2,-0.1l0.1,0c0.3,-0.8 1,-1.1 1.3,-1.9l0,0c-0.1,0 -0.1,-0.1 0,-0.2l-0.1,-0.2c0,-0.1 0.1,-0.2 0.2,-0.1l0.1,0c0,-0.1 0.1,-0.2 0.2,-0.3l-0.1,0c-0.1,0 -0.1,-0.1 0,-0.2l0.1,-0.2c0.1,-0.1 0.1,-0.1 0.2,-0.1l0,0l0,0c0,0 0,0 0,0c0,0 0.1,-0.1 0.1,-0.1c0.3,-0.2 0.7,-0.2 1,0c0.3,0.2 1.5,0.8 2.6,-0.2c1.8,-1.7 4,-3.9 5.6,-4c-0.4,-0.9 -1.2,-2.9 -1.3,-3.7l-0.5,-0.1c-0.3,-0.6 -1,-3.4 -1.2,-5.6c0,0 -0.2,-2.3 0,-3.1c-0.1,0 -0.4,0.2 -0.4,0.2c-0.3,-0.7 0.7,-6.9 1.6,-8.7l1.5,-0.6c-0.2,0 -1.2,-0.1 -4,-0.3c-1.6,1.4 -3.3,2.9 -4.3,3.7c-0.2,0.1 -0.4,1 -0.4,1s-0.4,0.4 -0.9,0.7c-0.6,0.4 -1.9,0.7 -2.2,0.2c-0.1,-0.1 -0.1,-0.2 0,-0.2c0.2,-0.2 1,-0.6 1.3,-1.1c-0.4,0.2 -0.9,0.5 -1.3,0.4c-0.2,0 -0.3,-0.4 0,-0.5c0.6,-0.2 1,-0.4 1.4,-0.8c0.3,-0.5 0.7,-0.8 1.3,-0.8c0,0 2.6,-3.4 4.1,-5c0.4,-0.4 1.2,-0.3 1.2,-0.3l0.1,-0.5c0,0 5.2,-0.6 7.7,0.2c-0.1,-1.5 0.6,-3.4 2.9,-3.4c1.2,0 2.9,1.1 3.2,2.3c0.1,0.4 -0.2,0.7 -0.3,1.2c-0.2,0.8 0.1,1.6 0,1.8c-0.1,0.2 -0.3,0.2 -0.5,0.5c-0.2,0.3 -0.5,0.9 -0.5,0.9l-0.3,0.7l-1.6,-0.1c-0.6,1.3 -1.8,3.9 -2.2,6.5l0,0c1.3,0.1 7.1,0.9 7.1,0.9l0.1,0.5c0,0 2.4,0.3 4.4,1.2c0.4,0.1 1.6,-0.1 2.3,0.3c0,0 0.2,-0.2 0.2,-0.2c2.6,0.8 4.8,2.2 7.3,2.8c0,0 1.2,0.3 1.6,0.4c0.9,0.2 1.5,0.2 2,0.3c0.8,0.1 1.3,0.1 1.8,0.1c0.3,-0.1 0.9,-0.2 1,0.4m3.8,-7.9c-1.8,0 -3.2,1.4 -3.2,3.2c0,1.8 1.4,3.2 3.2,3.2c1.8,0 3.2,-1.4 3.2,-3.2c0,-1.8 -1.5,-3.2 -3.2,-3.2z" class="st1"/>
    <path d="m88.831825,7.213971c0,0.502513 -0.085571,1.277831 2.010056,5.025136c2.796562,5.000681 6.199219,8.419569 10.552788,14.572893c4.185875,5.916302 8.151733,12.513618 15.075409,18.090488c4.777023,3.84779 10.457291,6.857075 15.075409,8.040218c5.44249,1.394344 10.598831,2.522148 18.593002,3.517593c8.11763,1.010818 20.758789,3.941906 32.663376,2.010056c9.411407,-1.527264 15.507004,-7.140354 20.10054,-12.56284c2.794144,-3.298374 4.522629,-7.035191 7.035187,-11.055298l3.517609,-6.030165l2.01004,-6.532677l1.005035,-5.527649" id="svg_5" fill-opacity="null" stroke-opacity="null" stroke-width="null" stroke="null" fill="none"/>
    <path d="m-9.66083,-5.348868c0.502513,1.005027 1.005027,2.010054 3.015081,4.020108c5.527649,5.527649 11.853415,10.442259 21.10557,15.075407c14.279752,7.15079 24.550059,11.073192 29.145785,15.57792c2.802834,2.747335 4.522621,5.025137 5.527649,6.030165c1.005028,1.005028 1.507542,1.507538 2.010056,2.010052c0.502514,0.502514 1.005028,1.005028 2.010056,2.010056c2.010052,2.010056 4.393391,3.690742 7.035191,5.527649c2.405731,1.67276 4.214512,2.471165 5.527645,3.015079c0.464264,0.192307 1.005028,0.502514 2.512573,0.502514l2.010048,0l1.005028,0l0.502518,0.502514" id="svg_6" fill-opacity="null" stroke-opacity="null" stroke-width="null" stroke="null" fill="none"/>
    <path d="m61.696095,27.817028c-0.502514,0 -0.73307,0.850973 -1.005028,1.50754c-0.576912,1.392786 -0.249359,3.471258 -0.50251,5.527651c-0.184193,1.496243 -0.750484,3.456566 -1.005028,5.025135c-0.160988,0.99205 0,2.010052 0,3.015079c0,0.502514 0.502514,1.005028 1.005028,1.005028c0.50251,0 1.005024,0.502514 1.005024,1.005028c0,1.005028 0.502514,2.512569 0.502514,4.020107c0,1.005028 0.502514,2.010056 0.502514,3.517597l0,1.005028l0,0.50251l0.502514,0.502514" id="svg_7" fill-opacity="null" stroke-opacity="null" stroke-width="null" stroke="null" fill="none"/>
  </g>
</svg>