<?xml version="1.0" encoding="utf-8"?>
<!-- Generator: Adobe Illustrator 22.0.1, SVG Export Plug-In . SVG Version: 6.00 Build 0)  -->
<svg version="1.2" baseProfile="tiny" id="Capa_1" xmlns="http://www.w3.org/2000/svg" xmlns:xlink="http://www.w3.org/1999/xlink"
	 x="0px" y="0px" viewBox="0 0 400 400" xml:space="preserve">
<g id="Capa_4_2_">
	<g>
		<path fill="#FFFFFF" d="M317,144"/>
		<g>
			<path fill="#0C366C" d="M254.6,56.3c0,30-24.4,54.3-54.3,54.3s-54.3-24.4-54.3-54.3S170.3,2,200.2,2
				C230.2,2,254.6,26.4,254.6,56.3z"/>
			<path fill="#CE9819" d="M245.9,56.3c0,25.2-20.5,45.7-45.7,45.7s-45.7-20.5-45.7-45.7s20.5-45.7,45.7-45.7
				C225.4,10.7,245.9,31.1,245.9,56.3z"/>
			<path fill="#0C366C" d="M245.6,61.1l-0.3,0.3c-0.3,0.3-4.8,9.8-28.3,10.4c0-4.5,0.6-8.4,1.4-11.5c0.8-3.6,2.8-7.8,6.4-8.4h0.3
				l0,0c2.5-0.3,4.8-0.8,6.7-2c9.5-4.5,13.4-14,14-15.1l0.3-0.6l-3.4-1.4h-0.3l-0.3,0.6c-0.3,0.6-5.3,12.6-17.4,14.6
				c-4.8,0.3-9.5-2-9.5-2c-5.9-2.5-13.7-2.5-14.8-2.5l0,0h-0.3c-1.1,0-9.2,0-15.1,2.5c0,0-4.5,2-9,2c-0.8,0-1.4,0-2-0.3
				c-11.2-2.8-15.7-14-16-14.6l-0.3-0.6l-3.9,1.4l0.3,0.6c0.3,0.6,3.9,10.9,14.3,15.7c1.4,0.8,2.8,1.4,4.5,1.7c0,0,0,0,0.3,0
				c6.7,1.7,9,8.4,10.1,13.4c0.3,2,0.6,4.2,0.6,6.7c-25.2-0.3-29.1-10.6-29.1-10.9v-0.6l-2.2,0.8l0,0l-2,0.6v0.6
				c0.3,0.6,4.5,13.7,33.1,13.7c-0.8,9.8-3.9,18.5-6.7,20.2l-0.3,0.3l2.2,3.4l0.3-0.3c5.6-3.6,10.4-21.3,8.1-35.3
				c-0.8-5.9-3.1-10.1-6.2-13.2c3.4-0.6,5.6-1.7,5.6-1.7c3.9-1.7,9.2-2,11.8-2.2c0.6,5.6,1.4,23.8-0.6,54.9v0.6l4.2-0.3v-0.3
				c2-30.3,1.1-47.9,0.6-54.6c2.8,0.3,7.6,0.6,11.2,2.2c0,0,2,0.8,4.8,1.7c-1.7,2-3.1,4.5-3.9,8.1c-3.4,12.6-0.8,35,6.7,40.6
				l0.3,0.3l2.5-3.4L224,97c-3.1-2.5-5.9-10.9-6.4-20.7c26.9-0.6,31.7-12.6,31.9-12.9l0.3-0.6L245.6,61.1z"/>
		</g>
		<g>
			<path fill="#FFFFFF" d="M200.2,386.9l122.1-243.4l-36.7-45.4c-24.7,24.7-85.2,24.7-85.2,24.7s-60.5,0-85.2-24.7l-37.3,45.4
				L200.2,386.9z"/>
			<path fill="#0C366C" d="M285.7,91.4l-3.4,3.4c-23.3,23.3-81.5,23.5-82.1,23.5s-58.8-0.3-82.1-23.5l-3.4-3.4l-42,51.5L200.2,397
				l126.9-253.2l0.3-0.8L285.7,91.4z M200.2,377.1L83.4,144l31.9-39.5c27.5,22.4,82.4,22.7,84.9,22.7c2.2,0,57.4-0.3,84.9-22.7
				L317,144L200.2,377.1z"/>
			<polygon fill="#72023F" points="207,167.6 188.5,149.1 169.7,167.8 150.9,149.1 132.7,167.6 151.5,186.1 132.7,204.8 
				150.9,223.3 169.7,204.5 188.5,223.3 207,204.8 188.2,186.1 			"/>
			<g>
				<polygon fill="#3171B2" points="174.2,325 200.2,377.1 317,144 284.8,104.5 				"/>
				<g>
					<path fill="#FFFFFF" d="M212.6,295.6c2.8-3.4,5.6-7.3,11.2-4.2c4.2,2.2,4.2,7.3,2.2,11.2c-1.7,3.4-5,6.2-9,5.9v-3.1
						c2.8,0.3,5-1.7,6.4-4.2c1.4-2.5,1.4-5.9-1.1-7.3c-3.1-2-5.3,0.6-7.6,3.4c-2.5,3.1-5.6,6.4-10.4,4.2c-3.9-2.2-4.2-7-2.2-10.9
						c1.7-3.4,5-5.9,9-5.6v2.8c-2.5-0.3-5,1.7-6.2,4.2c-1.4,2.5-1.4,5.6,1.1,7C208.6,300.6,210.6,298.1,212.6,295.6z"/>
					<path fill="#FFFFFF" d="M232.4,288.9l-22.7-11.5l3.6-7.6c2.2-4.2,6.2-7.3,11.2-5l9.2,4.5c4.8,2.5,4.8,7.6,2.5,11.8L232.4,288.9
						z M233.6,279.9c1.4-2.8,1.7-6.4-1.1-7.8l-9.2-4.5c-3.1-1.4-5.6,0.8-7,3.6l-2.5,5l17.4,8.7L233.6,279.9z"/>
					<path fill="#FFFFFF" d="M233,242.4l-5.3,10.4l4.5,2.2l4.8-9.5l4.5,2.2l-4.8,9.8l4.5,2.2l5.3-10.4l4.5,2.2l-7.6,15.1l-23-11.5
						l7.6-15.1L233,242.4z"/>
					<path fill="#FFFFFF" d="M230.8,235.1l2.2-4.5l22.7,11.5l-2,4.5L230.8,235.1z"/>
					<path fill="#FFFFFF" d="M253.7,216.3c2.8-2,5.6-1.1,7.8,0.3c2.8,2,4.5,5.6,2,10.6l-4.5,9l-23-11.5l4.5-8.7
						c2-3.9,5.9-5.9,10.1-3.6C252.1,212.7,253.5,214.3,253.7,216.3z M249.5,220.2c1.7-3.1-2.5-5.6-4.2-2.2l-2,4.2l4.2,2.2
						L249.5,220.2z M251.5,226.4l5.3,2.5l2-4.2c2.2-4.2-3.1-7-5.3-2.5L251.5,226.4z"/>
					<path fill="#FFFFFF" d="M249,199.2l2.2-4.5l26.9,3.4l-2.5,4.8l-6.2-0.6l-3.4,6.7c1.7,1.7,2.5,2.8,4.2,4.5l-2.5,4.8L249,199.2z
						 M254.9,199.5l3.1,2.2l4.2,3.6l2.2-4.2l-5.6-1.1l-3.6-1.1L254.9,199.5z"/>
					<path fill="#FFFFFF" d="M288.5,177.1l-2.8,5.6l-11.5,2.2l-0.8,1.4l8.4,4.2l-2.2,4.8l-23-11.5l4.5-8.7c2.2-4.5,5.9-6.7,11.2-4.2
						c4.2,2.2,5.3,5,4.2,8.4L288.5,177.1z M271.1,180.2c1.1-2,0.8-3.6-1.1-4.8c-2-0.8-3.4,0-4.2,2l-2,4.2l5.3,2.8L271.1,180.2z"/>
				</g>
			</g>
			<line fill="none" x1="221.5" y1="230.6" x2="222.1" y2="230.9"/>
		</g>
	</g>
</g>
<g>
</g>
<g>
</g>
<g>
</g>
<g>
</g>
<g>
</g>
<g>
</g>
<g>
</g>
<g>
</g>
<g>
</g>
<g>
</g>
<g>
</g>
<g>
</g>
<g>
</g>
<g>
</g>
<g>
</g>
</svg>
