<svg xmlns="http://www.w3.org/2000/svg" width="313" height="700" viewBox="0 0 313 700">
  <g fill="none" transform="translate(-.772 -.557)">
    <g transform="matrix(1 0 0 -1 0 701)">
      <path fill="#C42D2F" d="M234.803091,627.463546 C232.435435,668.163558 198.684858,700.442756 157.379656,700.442756 C116.074454,700.442756 82.3238766,668.163558 79.9526912,627.463546 L0.807323118,627.463546 L0.772037622,164.946729 C31.2657635,28.0159 157.231457,0.442761722 157.231457,0.442761722 L157.31967,0.442761722 C157.31967,0.442761722 283.281835,28.0159 313.772032,164.946729 L313.772032,166.054453 L313.772032,627.463546 L234.803091,627.463546 Z"/>
      <path fill="#FFF" d="M295.19069,164.80209 C273.405424,47.6762249 157.277328,19.0235856 157.277328,19.0235856 C157.277328,19.0235856 41.1386453,47.6762249 19.3533799,164.80209 L19.4027796,237.121606 L295.19069,601.68252 L295.19069,164.80209 L295.19069,164.80209 Z"/>
    </g>
    <g transform="matrix(1 0 0 -1 16.643 665.194)">
      <polygon fill="#FFF" points="212.031 508.96 197.536 490.326 21.412 490.368 21.814 288.382 132.223 434.665 58.476 434.665 58.476 453.256 169.558 453.256 2.767 231.722 2.76 508.822 212.031 508.96"/>
      <path fill="#FFF" d="M20.6850636 94.9534073C9.43604741 76.5489726 9.59483214 46.2453316 21.0273329 28.419453 18.3809207 27.0753683 15.9603357 25.5513668 13.8079204 23.8686152 4.98654633 34.4484311.134790596 47.7587498.134790596 61.4747633.134790596 75.2436935 5.03241748 88.6104567 13.9525909 99.2431893 15.9179931 97.7191878 18.1339222 96.3010198 20.6850636 94.9534073M55.1731076 96.2198808C40.3602563 96.8372425 27.5551497 100.336802 20.321623 105.71314 30.0145488 114.165704 42.290373 119.270404 55.1731076 120.215849L55.1731076 96.2198808 55.1731076 96.2198808zM89.9610784 91.2245426C93.8671828 85.0156476 96.2983535 76.1785555 96.8735071 66.1102678L22.5057952 66.1102678C23.0456633 75.8716386 25.4486056 84.9415642 29.1959253 91.3374316 47.554969 84.9697864 71.6867199 84.927453 89.9610784 91.2245426M64.9824756 96.2481031L64.9824756 120.148821C77.4664842 119.019931 89.3929819 113.943454 98.8389093 105.720196 91.9758802 100.424996 79.5306857 96.9395482 64.9824756 96.2481031M105.052685 23.4981981C103.009655 25.1245053 100.754912 26.5955901 98.3060983 27.8938136 109.915027 46.2100538 109.985598 76.7253616 98.4437117 94.8652128 100.945453 96.1810752 103.210782 97.65216 105.21147 99.2573005 114.149286 88.65279 119.05397 75.2824991 119.05397 61.4747633 119.05397 47.5470829 114.085772 34.1097641 105.052685 23.4981981M55.1731076 26.726118L55.1731076 2.6948721C42.219802 3.64031747 29.8910496 8.80498922 20.1663668 17.3457476 27.325794 22.7785308 40.1873574 26.2357564 55.1731076 26.726118M98.6942387 17.081164C89.3082967 8.94610047 77.4382558 3.90490107 64.9824756 2.77601107L64.9824756 26.6308679C79.371901 25.8300615 91.7606387 22.3128636 98.6942387 17.081164M89.8375792 31.5627061C80.5645507 34.7765148 69.7848316 36.385183 59.0192267 36.385183 48.7264475 36.385183 38.4583681 34.9140983 29.5628945 31.9542898 25.6991326 38.0432402 23.1797482 46.9861657 22.5481378 56.8251476L96.8382216 56.8251476C96.2171969 46.9438323 93.701341 37.8562678 89.8375792 31.5627061" transform="translate(81.157 525.64)"/>
      <path fill="#C31632" d="M131.48999,269.653721 L131.48999,138.046314 L131.48999,137.919314 C98.759164,142.036234 73.4312348,169.944512 73.4312348,203.790045 C73.4312348,237.632051 98.759164,265.5368 131.48999,269.653721 M131.48999,119.610129 L131.48999,100.863499 L150.110147,100.863499 L150.110147,119.835907 C169.453656,122.174826 186.78942,131.015446 199.845054,144.138792 L186.987019,156.990499 C177.234108,147.172684 164.425473,140.385233 150.110147,138.166258 L150.110147,213.269193 L241.429011,213.269193 L241.429011,231.839434 L150.110147,231.839434 L150.110147,269.406776 C164.273745,267.212496 176.958881,260.54499 186.669449,250.89298 L199.403985,263.871687 C186.40128,276.751617 169.238414,285.422903 150.110147,287.737128 L150.110147,335.016452 L241.429011,456.005238 L241.429011,370.340126 L260.073867,370.340126 L259.770412,511.176209 L131.48999,341.214764 L131.48999,310.34315 L131.48999,287.962906 C88.6851549,283.764846 55.2415615,247.682699 55.2415615,203.790045 C55.2415615,159.890335 88.6851549,123.811716 131.48999,119.610129"/>
      <g transform="translate(105.856)">
        <path fill="#C31632" d="M48.5299073,66.3445125 C48.2370376,66.6020406 47.8947683,66.8101796 47.5030993,66.9548187 C47.122016,67.1382633 46.7162328,74.5148539 49.6908001,82.254806 C49.3873448,81.640972 45.3259842,75.4250215 41.1270102,75.4250215 C35.3578315,75.4250215 34.6062504,80.9071935 34.6062504,80.9071935 C34.6062504,80.9071935 33.9922828,77.6439959 29.8003659,76.3669391 C25.5978633,75.0863545 20.7990358,78.9633861 20.7990358,78.9633861 C20.7990358,78.9633861 24.0347158,75.06166 24.0347158,72.1759349 C24.0347158,69.2655154 19.8992556,66.0058455 19.3346877,65.6954008 C9.92051727,59.7510894 2.57407695,48.7161896 2.57407695,35.8397881 C2.57407695,17.1284363 16.8858742,1.95897693 34.5886077,1.95897693 C52.2842841,1.95897693 66.5925528,17.1284363 66.5925528,35.8397881 C66.5925528,49.2947457 59.2249412,60.9082016 48.5299073,66.3445125"/>
        <path fill="#FFF" d="M32.0551091,10.8842635 C37.5137753,15.0823232 38.1594999,19.5626054 38.1594999,28.5725587 C38.1594999,37.5930953 23.6995036,41.3995713 23.6995036,50.0920243 C23.6995036,58.1918101 34.5886077,62.9084536 35.957685,63.4446763 C36.105884,63.5363986 36.2364404,63.5540376 36.2364404,63.5540376 C36.2364404,63.5540376 36.0564843,63.4728986 35.957685,63.4446763 C35.2590321,63.0813149 33.3395011,61.3879799 33.3395011,52.9918605 C33.3395011,42.7083781 48.4205222,45.2624918 48.4205222,31.486506 C48.4205222,17.6505479 32.3762071,10.5738187 32.0551091,10.8842635"/>
      </g>
    </g>
  </g>
</svg>
