<?xml version="1.0" encoding="utf-8"?>
<!-- Generator: Adobe Illustrator 22.0.1, SVG Export Plug-In . SVG Version: 6.00 Build 0)  -->
<svg version="1.2" baseProfile="tiny" width="466" height="567" id="Capa_1" xmlns="http://www.w3.org/2000/svg" xmlns:xlink="http://www.w3.org/1999/xlink"
	 x="0px" y="0px" viewBox="0 0 400 400" xml:space="preserve">
<g id="Capa_4_3_">
	<g>
		<path fill="#C42844" d="M279.4,76.8c0,0-3.2-5.2-10.3-8c-6.6-2.6-16.9-4.3-17.8-4.3c0,0-0.9-0.9-7.5-5.2
			c-12.6-8.6-31.5-9.2-43.6-6c-12-2.9-31-2.3-43.6,6c-6.6,4.6-7.5,5.2-7.5,5.2c-0.9,0-11.2,1.7-17.8,4.3c-6.9,2.9-10.3,8-10.3,8
			l-2.6,11.5l2,15.2l12.3,2.9l36.4-9.5l31-3.7l31,3.7l36.4,9.5l12.3-2.9l2-15.2L279.4,76.8z"/>
		<path fill="#0D4C92" d="M279.4,76.8l0.3-0.3c0,0-3.2-5.2-10.3-8c-6.9-2.6-16.9-4.3-17.8-4.3v0.6h0.6l-0.6-0.6
			c-0.6-0.6-2.3-1.7-7.2-4.9c-8.3-5.7-19.5-7.7-29.2-7.7c-5.2,0-10.3,0.6-14.6,1.7v0.6v-0.6c-4.3-1.1-9.2-1.7-14.6-1.7
			c-10,0-20.9,2.3-29.2,7.7c-3.2,2.3-5.2,3.4-6,4.3l-1.1,0.6l-0.3,0.6h0.6v-0.6c-0.9,0.3-11.2,1.7-17.8,4.3c-7.2,2.9-10.3,8-10.3,8
			l0,0L119.2,88v0.3l2,15.2l0.3,0.3l12.3,2.9h0.3l36.4-9.5l31-3.4l31,3.4l36.4,9.5h0.3l12.3-2.9l0.3-0.3l2-15.2V88l-2.6-11.5l0,0
			L279.4,76.8h-0.6l2.6,11.5l-1.7,14.9l-11.8,2.9l-36.4-9.5l0,0l-31-3.7l0,0l-31.2,3.4l0,0l-36.4,9.5l-11.8-2.9L119.4,88l2.6-11.5
			h-0.6l0.3,0.3c0,0,3.2-5.2,10-7.7c6.6-2.6,16.9-4.3,17.8-4.3l0.3-0.6h-0.3l0.3,0.3v-0.3h-0.3l0.3,0.3c0-0.3,1.4-1.1,7.2-5.2
			c8.3-5.4,18.9-7.7,28.9-7.7c5.2,0,10,0.6,14.3,1.7h0.3c4-1.1,9.2-1.7,14.3-1.7c9.7,0,20.6,2.3,28.9,7.7c3.2,2.3,5.2,3.4,6,4.3
			l0.9,0.9l0,0l0.3-0.3h-0.3v0.3l0.3-0.3h-0.3l0.3,0.6c0.9,0,11.2,1.7,17.8,4.3c3.4,1.4,6,3.2,7.5,4.9c1.7,1.7,2.3,2.9,2.3,2.9
			H279.4h-0.6H279.4z"/>
		<path fill="#ECBF07" d="M268.5,112.1c-20.6-9.7-43.6-15.2-67.9-15.2s-47.3,5.4-67.9,15.2l-0.6,2l2,0.9l3.4,7.2l-0.9,2.3l2.3,0.9
			c18.9-8.9,39.8-13.8,61.9-13.8s43,4.9,61.9,13.8l2.3-0.9l-1.1-2.6l3.4-7.2l2-0.9L268.5,112.1z"/>
		<path fill="#0D4C92" d="M268.5,112.1l0.3-0.6c-20.6-9.7-43.9-15.2-68.2-15.2s-47.6,5.4-68.2,15.2l-0.3,0.3l-0.6,2l0.3,0.9l1.7,0.6
			l3.2,6.6l-0.9,2l0.3,0.9l2.3,0.9h0.6c18.6-8.9,39.6-13.8,61.6-13.8s43,4.9,61.6,13.8h0.6l2.3-0.9l0.3-0.9l-0.9-2l3.2-6.6l1.7-0.6
			l0.3-0.9l-0.6-2l-0.3-0.3L268.5,112.1l-0.6,0.3l0.6,1.4l-1.7,0.3l-0.3,0.3l-3.2,7.2v0.6l0.6,1.7l-1.7,0.6l0.3,0.6l0.3-0.6
			c-18.9-8.9-39.8-13.8-62.2-13.8s-43.3,4.9-62.2,13.8l0.3,0.6l0.3-0.6l-1.7-0.6l0.6-1.7v-0.6l-3.4-7.2l-0.3-0.3l-1.4-0.6l0.6-1.4
			l-0.6-0.3l0.3,0.6c20.6-9.7,43.6-15.2,67.6-15.2s47,5.4,67.6,15.2L268.5,112.1l-0.6,0.3L268.5,112.1z"/>
		<path fill="#ECBF07" d="M132.3,111.2c20.6-9.7,43.9-15.2,68.2-15.2s47.6,5.4,68.5,15.2h-0.3c1.7,0.9,3.7,0,4.6-1.7v-2.9
			c3.4,1.1,7.2,0.3,10-1.7c3.2,2,6.3,1.1,8.9-0.9c2.6-2,4.9-6.6,1.7-9.5c2.3-3.2,1.7-7.2-1.1-8.9l0.9-3.2c0-2.9-2-5.4-4.9-6
			c1.4-1.1,2.3-2.9,2.3-4.9c0-3.2-2.3-5.7-5.4-6l1.1-3.4c0-3.4-2.6-6-6-6l-1.7,0.3l0.6-2.6c0-3.4-2.6-6-6-6l-2.9,0.6v-0.9
			c0-3.4-2.6-6-6-6L261,43c-0.6-2.9-3.2-4.9-6-4.9c-2,0-4,1.1-5.2,2.9c-1.1-1.1-2.6-2-4.6-2l-1.4,0.3l0.3-2.3c0-3.4-2.6-6-6-6
			l-2.9,0.9V31c0-3.4-2.6-6-6-6l-3.7,1.1c-0.6-2.6-3.2-4.9-6-4.9c-1.7,0-3.2,0.6-4.3,1.7c-0.6-1.7-2.9-3.2-5.2-3.2l-2,0.3
			c-1.1-1.1-2.3-2.3-4-2.9l-1.1-0.3v-4.6h4.6V7.8h-4.6V3.5H198v4h-4.6v4.6h4.6v4.6l-1.1,0.3c-1.4,0.6-2.9,1.4-4,2.9l-2-0.3
			c-2.3,0-4.6,1.4-5.4,3.4c-1.1-1.1-2.6-1.7-4.3-1.7c-2.9,0-5.4,2-6,4.9l-3.7-1.1c-3.4,0-6,2.6-6,6v0.9l-3.2-0.9c-3.4,0-6,2.6-6,6
			l0.3,2.3L155,39c-1.7,0-3.4,0.9-4.6,2c-1.1-1.7-2.9-2.9-5.2-2.9c-2.9,0-5.4,2-6,4.9l-3.4-1.1c-3.4,0-6,2.6-6,6v0.9l-2.9-0.6
			c-3.4,0-6,2.6-6,6l0.6,2.6l-1.7-0.3c-3.4,0-6,2.6-6,6l1.1,3.4c-3.2,0.3-5.4,2.9-5.4,6c0,2,0.9,3.7,2.3,4.9c-2.9,0.6-4.9,3.2-4.9,6
			l0.9,3.2c-2.9,1.7-3.4,5.7-1.1,8.9c-3.2,2.6-0.9,7.5,1.7,9.5c2.3,2,5.7,2.9,8.9,0.9c2.9,2,6.6,2.9,10,1.7v2.9
			C128.6,111.5,130.6,112.1,132.3,111.2z M244.4,86.6c-0.3,3.7,1.1,7.2,3.7,9.5c-3.7-1.1-7.7-2-11.8-2.9
			C239.8,92.6,243,90,244.4,86.6z M205.7,56.8l-0.9-2.9V49l0.9-2.9l-0.9-2.9v-4.9l0.9-2.9V35c21.5-1.4,36.1,14.3,38.1,33.2
			c-1.4,0.6-2.3,1.4-3.2,3.2c-4-0.3-5.7,2-6.6,5.2c-0.9,3.7-0.3,7.2,5.4,8.6c-1.1,2.6-4,4-6.9,3.4c-2.6-0.6-4.3-3.2-4.6-5.7l0.9-3.2
			c0-3.4-2.9-6-6-6c-3.4,0-6,2.9-6,6l0.3,1.7c-0.9,2.6-3.2,4.3-5.7,4.3c-2.9,0-5.4-2.3-5.7-4.9c6,0,7.5-3.2,7.5-6.9
			c0-3.2-1.1-6-5.2-6.9c-0.6-3.4-2.6-4.6-5.2-5.2C204.6,60.8,205.7,59.1,205.7,56.8z M228.1,91.5c-4.3-0.6-8.6-1.1-13.2-1.7
			c2.6-0.9,4.6-2.6,6.3-4.6l1.7,0.3h0.3C224.1,88,225.8,90,228.1,91.5z M195.4,34.4V35l0.9,2.9v4.9l-0.9,2.9l0.9,2.9v4.9l-0.9,2.9
			c0,2.3,1.4,4,3.2,4.9c-2.6,0.6-4.6,1.7-5.2,5.2c-4,0.9-5.2,3.4-5.2,6.9c0,3.7,1.4,6.9,7.5,6.9c-0.6,2.9-2.9,4.9-5.7,4.9
			c-2.6,0-4.9-1.7-5.7-4.3l0.3-1.7c0-3.4-2.9-6-6-6c-3.4,0-6,2.9-6,6l0.9,3.2c0,2.6-1.7,4.9-4.6,5.7c-2.9,0.9-5.7-0.9-6.9-3.4
			c5.7-1.4,6.6-4.9,5.4-8.6c-0.9-3.2-2.6-5.4-6.6-5.2c-0.9-1.7-2-2.9-3.2-3.2C159,48.8,173.9,33,195.4,34.4z M185.9,90
			c-4.3,0.3-8.9,0.9-13.2,1.7c2.3-1.4,4-3.4,4.9-6h0.3l1.7-0.3C181.4,87.5,183.6,89.2,185.9,90z M156.7,86.6c1.4,3.4,4.3,5.7,8,6.6
			c-4,0.9-7.7,1.7-11.8,2.9C155.8,93.8,157.3,90.3,156.7,86.6z M122.6,101.8c4.3-2.3,4.6-5.4,3.2-8.6c-0.9-2-2-4-4-4.6
			c1.4-17.8,6.6-26.4,22.9-34.7l0,0v0.9c0,2,0.9,3.7,2.3,4.9c-2.9,0.6-4.9,3.2-4.9,6c0,2.9,1.7,5.2,4.3,5.7c-0.6,0.9-0.6,2-0.6,3.4
			c-3.7,1.7-4,4.6-3.2,7.7c0.9,3.7,3.2,6.3,8.9,4.9c0.3,2.9-1.7,5.4-4.6,6.3c-2.3,0.6-4.9-0.3-6.3-2.3l0.3-1.4
			c-0.9-3.2-4-5.2-7.5-4.3c-3.2,0.9-5.2,4.3-4.3,7.5l1.4,2.6c0.3,2.3-0.9,4.6-3.2,5.7C125.7,102.4,124,102.4,122.6,101.8z M145,98.9
			c-4,1.4-8.3,3.2-12,4.9c1.4-1.7,2.6-3.7,2.9-6h0.9l2-1.1C140.4,97.8,142.7,98.6,145,98.9z M194.5,89.5c3.2-1.4,5.7-4.6,6-8.3
			c0.6,3.7,2.9,6.9,6,8.3c-2,0-4,0-6,0C198.5,89.5,196.5,89.5,194.5,89.5z M256.2,98.9c2.3-0.3,4.6-0.9,6.3-2.3l2,1.1h0.9
			c0.3,2.3,1.4,4.3,2.9,6C264.5,101.8,260.2,100.4,256.2,98.9z M278.5,101.8c-1.4,0.6-3.4,0.6-4.9-0.3c-2-1.1-3.2-3.4-3.2-5.7
			l1.4-2.6c0.9-3.2-1.1-6.6-4.3-7.5s-6.6,1.1-7.5,4.3l-0.3,1.1c-1.4,2-3.7,2.9-6.3,2.3c-2.9-0.9-4.6-3.4-4.6-6.3
			c5.7,1.4,8-1.1,8.9-4.9c0.9-3.2,0.6-6-3.2-7.7c0-1.4,0-2.6-0.6-3.4c2.6-0.9,4.3-3.2,4.3-5.7c0-2.9-2-5.4-4.9-6
			c1.4-1.1,2.3-2.9,2.3-4.9v-0.9l0,0c16.6,8.3,21.8,16.9,23.2,34.7c-2,0.6-3.2,2.6-4,4.6C273.9,96.6,274.2,99.8,278.5,101.8z"/>
		<path fill="#0D4C92" d="M132.3,111.2l0.3,0.6c20.6-9.7,43.6-15.2,67.9-15.2s47.6,5.4,68.2,15.2l0.3-0.6l0.3-0.6h-0.3l-0.9,0.3
			l0.3,0.9l1.7,0.3c1.4,0,2.9-0.9,3.7-2.3v-0.3v-2.9h-0.6l-0.3,0.6l3.4,0.6c2.6,0,5.2-0.9,7.2-2.3l-0.3-0.6l-0.3,0.6l4,1.4
			c2,0,4-0.9,5.4-2c1.7-1.4,3.4-4,3.4-6.6l-1.7-3.7l-0.3,0.6l0.6,0.3c1.1-1.4,1.7-3.2,1.7-4.6c0-2-1.1-4.3-2.9-5.4l-0.3,0.6l0.6,0.3
			l0.9-3.2v-0.3c0-3.2-2.3-6-5.4-6.6v0.6l0.3,0.6c1.4-1.1,2.6-3.2,2.6-5.2c0-3.4-2.6-6.3-6-6.6v0.6l0.6,0.3l1.1-3.4v-0.3
			c0-3.7-2.9-6.6-6.6-6.6l0,0h-0.6l0.3-1.7l0,0c0-3.7-2.9-6.6-6.6-6.6h-0.3l-2,0.6l0,0l0,0c0-3.7-2.9-6.6-6.6-6.6H265l-3.4,1.1
			l0.3,0.6h0.6c-0.6-3.2-3.4-5.2-6.6-5.2c-2.3,0-4.6,1.1-5.7,3.2l0.6,0.3l0.6-0.6c-1.1-1.4-2.9-2.3-4.9-2.3l0,0h-0.6l0.3-1.4l0,0
			c0-3.7-2.9-6.6-6.6-6.6h-0.3l-2.3,0.6l0,0l0,0c0-3.7-2.9-6.6-6.6-6.6h-0.3l-3.7,1.1l0.3,0.6h0.6c-0.6-2.9-3.4-5.2-6.6-5.2
			c-1.7,0-3.4,0.9-4.9,2l0.6,0.6l0.6-0.3c-1.1-2.3-3.4-3.7-6-3.7l0,0l-2,0.3V21l0.6-0.3c-1.1-1.4-2.6-2.3-4.3-2.9l0,0l-1.4-1.4v-3.4
			h4l0.3-0.3l0.3-0.6V7.8L208,7.2l-0.6-0.3h-3.7V3.5l-0.3-0.6l-0.6-0.3H198l-0.6,0.3l-0.3,0.6v3.4h-4l-0.6,0.3l-0.3,0.6v4.6l0.9,0.3
			l0.6,0.3h4v3.4l-0.6,0.3l0,0c-1.7,0.6-3.2,1.7-4.3,2.9l0.6,0.3v-0.6l-2-0.3l0,0c-2.6,0-4.9,1.7-6,3.7l0.6,0.3l0.6-0.6
			c-1.1-1.1-2.9-2-4.9-2c-3.2,0-6,2.3-6.6,5.2h0.6l0.3-0.6l-3.7-1.1h-0.3c-3.7,0-6.6,2.9-6.6,6.6l0,0l0,0l-2.3-0.6h-0.3
			c-3.7,0-6.6,2.9-6.6,6.6l0,0l0.3,1.4h-0.6l0,0c-2,0-3.7,0.9-4.9,2.3l0.6,0.6l0.6-0.3c-1.1-1.7-3.2-3.2-5.7-3.2
			c-3.2,0-6,2.3-6.6,5.2h0.6l0.3-0.6l-4-0.6h-0.3c-3.7,0-6.6,2.9-6.6,6.6l0,0l0,0l-2-0.6h-0.3c-3.7,0-6.6,2.9-6.6,6.6l0,0l0.3,1.7
			h-0.6l0,0c-3.7,0-6.6,2.9-6.6,6.6v0.3l1.1,3.4l0.6-0.3v-0.6c-3.4,0.3-6,3.2-6,6.6c0,2,1.1,4,2.6,5.2l0.3-0.6v-0.6
			c-3.2,0.6-5.4,3.4-5.4,6.6v0.3l0.9,3.2l0.6-0.3l-0.3-0.6c-2,1.1-2.9,3.2-2.9,5.4c0,1.4,0.6,3.2,1.7,4.6l0.6-0.3l-0.3-0.6l-1.7,3.7
			c0,2.6,1.7,5.2,3.4,6.6c1.4,1.1,3.4,2,5.4,2l4-1.4l-0.9,0l-0.3,0.6c2,1.4,4.6,2.3,7.2,2.3l3.4-0.6l-0.3-0.6h-0.6v2.9v0.3
			c0.6,1.4,2,2.3,3.7,2.3l1.7-0.3L132.3,111.2l-0.3-0.6l-1.1,0.3l-2.6-1.7l-0.6,0.3h0.6v-2.9l-0.3-0.6h-0.6l-3.2,0.6
			c-2.3,0-4.6-0.9-6.3-2h-0.9l-3.4,1.1c-1.7,0-3.4-0.9-4.6-1.7c-1.4-1.1-2.9-3.4-2.9-5.4l1.4-2.9v-0.9l-1.4-3.7
			c0-1.7,0.9-3.4,2.3-4.3l0.3-0.6l-0.9-3.2l-0.6,0.3h0.6c0-2.6,1.7-4.9,4.3-5.2l0.6-0.6l-0.3-0.6c-1.1-0.9-2-2.6-2-4.3
			c0-2.9,2.3-5.2,4.9-5.4l0.6-0.3v-0.6l-1.1-3.4l-0.6,0.3h0.6c0-2.9,2.3-5.4,5.4-5.4v-0.6v0.6l1.7,0.3l0.6-0.3l0.3-0.6l-0.6-2.6
			h-0.6h0.6c0-2.9,2.3-5.4,5.4-5.4v-0.6l-0.3,0.6l2.9,0.6h0.6l0.3-0.6v-0.9h-0.6h0.6c0-2.9,2.3-5.4,5.4-5.4v-0.6l-0.3,0.6l3.4,1.1
			h0.6l0.3-0.3c0.6-2.3,2.6-4.3,5.2-4.3c2,0,3.7,0.9,4.6,2.6l0.6,0.3l0.6-0.3c0.9-1.1,2.3-1.7,4-1.7v-0.6v0.6l1.4,0.3l0.6-0.3
			l0.3-0.6l-0.3-2.3H157h0.6c0-2.9,2.3-5.4,5.4-5.4v-0.6l-0.3,0.6l3.2,0.9h0.6l0.3-0.6v-0.9h-0.6h0.3c0-2.9,2.3-5.4,5.4-5.4V25
			l-0.3,0.6l3.4,1.1h0.6l0.3-0.3c0.6-2.3,2.6-4.3,5.2-4.3c1.4,0,2.9,0.6,3.7,1.7l0.6,0.3l0.6-0.3c0.9-1.7,2.9-3.2,4.9-3.2v-0.9v0.6
			l2,0.3l0.6-0.3c0.9-1.1,2.3-2,3.7-2.6l-0.3-0.6l0.3,0.6l1.1-0.3l0.6-0.6v-4.6l-0.3-0.6l-0.6,0h-4V8.3h4l0.6-0.3l0.3-0.6V4.1h3.7
			v3.4l0.3,0.6l0.6,0.3h4v3.4h-4l-0.6,0.3l-0.3,0.6v4.6l0.6,0.6l1.1,0.3l0.3-0.6l-0.9,0.3c1.7,0.6,2.9,1.4,3.7,2.6l0.6,0.3l2-0.3
			v-0.6v0.6c2.3,0,4,1.1,4.9,3.2l0.6,0.3l0.6-0.3c0.9-0.9,2.3-1.7,3.7-1.7c2.6,0,4.9,1.7,5.2,4.3l0.3,0.3h0.6l3.7-0.9l-0.3-0.6v0.6
			c2.9,0,5.4,2.3,5.4,5.4h0.6h-0.6v0.9l0.3,0.6h0.6l3.2-0.9l-0.3-0.6v0.6c2.9,0,5.4,2.3,5.4,5.4h0.6h-0.6l-0.3,2.3l0.3,0.6l0.6,0.3
			l1.4-0.3v-0.6v0.6c1.7,0,3.2,0.6,4,1.7l0.6,0.3l0.6-0.3c0.9-1.4,2.6-2.6,4.6-2.6c2.6,0,4.9,1.7,5.2,4.3l0.3,0.3h0.6l3.4-1.1
			l-0.3-0.6v0.6c2.9,0,5.4,2.3,5.4,5.4h0.6h-0.6v0.9l0.3,0.6h0.6l2.9-0.6l-0.3-0.6v0.6c2.9,0,5.4,2.3,5.4,5.4h0.6h-0.6l-0.9,2.6
			l0.3,0.6l0.6,0.3l1.7-0.3v-0.6v0.6c2.9,0,5.4,2.3,5.4,5.4h0.6l-0.6-0.3l-1.1,3.4v0.6l0.6,0.3c2.9,0.3,4.9,2.6,4.9,5.4
			c0,1.7-0.9,3.2-2,4.3l-0.3,0.6l0.6,0.6c2.6,0.6,4.3,2.6,4.3,5.2h0.6l-0.6-0.3l-0.9,3.2l0.3,0.9c1.4,0.9,2.3,2.6,2.3,4.3l-1.4,3.7
			v0.9l1.4,2.9c0,2-1.4,4.3-2.9,5.4c-1.4,1.1-3.2,1.7-4.6,1.7l-3.7-1.1h-0.9c-1.7,1.4-4,2-6.3,2l-3.2-0.6h-0.6l-0.3,0.6v2.9h0.6
			l-0.6-0.3l-2.6,1.7l-1.1-0.3l-0.3,0.6l-0.3,0.6h0.3l0.9-0.3l-0.3-0.9c-20.9-9.7-44.1-15.2-68.8-15.2s-47.9,5.4-68.5,15.2
			L132.3,111.2z M244.4,86.6h-0.6v1.1c0,3.4,1.4,6.6,4,8.9l0.3-0.6l0.3-0.6c-3.7-1.1-7.7-2-11.8-2.9v0.6v0.6
			c3.7-0.9,6.9-3.4,8.3-6.9L244.4,86.6h-0.6H244.4l-0.6-0.3c-1.4,3.2-4.3,5.4-7.5,6l-0.6,0.6l0.6,0.6c4,0.9,7.7,1.7,11.8,2.9
			l0.9-0.3l-0.6-0.3c-2.3-2-3.7-4.9-3.7-7.7v-1.1l-0.6-0.6l-0.9,0.3H244.4z M205.7,56.8l0.6-0.3l-0.9-2.9V49l0.9-2.9v-0.3l-0.9-2.9
			v-4.6l0.9-2.9v-0.3v-0.6h-0.6v0.6h2.9c19.5,0,32.7,14.9,34.7,32.7h0.6l-0.3-0.9c-1.4,0.6-2.9,1.7-3.7,3.7l0.6,0.3v-0.6h-0.6
			c-4,0-6,2.6-6.6,5.7l-0.3,2.6c0,2.9,1.7,5.4,6.3,6.9l0.3-0.6l-0.6-0.3c-0.9,2-2.9,3.2-4.9,3.2l-1.4-0.3c-2.3-0.6-4-2.6-4-4.9h-0.6
			l0.6,0.3l0.9-3.2v-0.3c0-3.7-3.2-6.9-6.9-6.9c-3.7,0-6.9,3.2-6.9,6.9l0,0l0.3,1.7h0.6l-0.6-0.3c-0.6,2.3-2.6,3.7-5.2,3.7
			s-4.9-2-5.2-4.6h-0.6v0.6c3.2,0,5.2-0.9,6.6-2.3c1.1-1.4,1.7-3.4,1.7-5.4c0-3.4-1.1-6.6-5.4-7.5v0.6h0.6c-0.6-3.4-3.2-5.2-5.7-5.7
			v0.6l0.3,0.6c2-0.9,3.4-3.2,3.4-5.4v-0.3L205.7,56.8h-0.6c0,2-1.1,3.4-2.9,4.3l-0.3,0.6l0.6,0.6c2.6,0.6,4,1.4,4.9,4.6l0.6,0.6
			c3.7,0.9,4.6,2.9,4.6,6c0,3.7-1.1,6.3-6.9,6.3l-0.6,0.3v0.6c0.6,3.2,3.2,5.4,6.6,5.4c2.9,0,5.4-2,6.3-4.6v-0.3l-0.3-1.7h-0.6h0.6
			c0-2.9,2.6-5.4,5.4-5.4s5.4,2.3,5.4,5.4h0.6l-0.6-0.3l-0.9,3.2v0.3c0,2.9,2,5.4,4.9,6.3l1.7,0.3c2.6,0,4.9-1.4,6-4v-0.6l-0.6-0.3
			c-4.3-1.1-5.4-3.2-5.4-5.4l0.3-2.3c0.9-2.9,2-4.9,5.4-4.9h0.6l0.6-0.3c0.9-1.7,1.7-2.6,2.9-2.9l0.3-0.6
			c-1.7-18.3-15.5-33.8-35.8-33.8h-2.9l-0.6,0.6v0.6l-0.9,2.9v0.3v4.9v0.3l0.9,2.9l-0.9,2.9v0.3v4.9v0.3l0.9,2.9L205.7,56.8h-0.6
			H205.7z M228.1,91.5v-0.6c-4.3-0.6-8.6-1.1-13.2-1.7v0.6l0.3,0.6c2.6-0.9,4.9-2.6,6.6-4.9l-0.6-0.3v0.6l1.7,0.3l0,0h0.3v-0.6
			l-0.6,0.3c0.9,2.6,2.6,4.9,5.2,6.3L228.1,91.5v-0.6V91.5l0.3-0.6c-2-1.4-3.7-3.4-4.6-5.7l-0.6-0.6h-0.3l-1.7-0.3l-0.6,0.3
			c-1.4,2-3.4,3.4-5.7,4.3l-0.6,1.1l0.6,0.6c4.3,0.3,8.6,0.9,12.9,1.7l0.6-0.3l-0.3-0.9L228.1,91.5z M195.4,34.4h-0.6V35v0.3
			l0.9,2.9v4.6l-0.9,2.9v0.3l0.9,2.9v4.6l-0.9,2.9v0.3c0,2.3,1.4,4.6,3.4,5.4l0.3-0.6v-0.6c-2.9,0.3-5.2,2-5.7,5.7h0.6V66
			c-4.3,0.9-5.7,4-5.4,7.5c0,2,0.3,4,1.7,5.4c1.1,1.4,3.4,2.3,6.6,2.3v-0.6h-0.6c-0.3,2.6-2.6,4.6-5.2,4.6c-2.3,0-4.3-1.7-5.2-3.7
			l-0.6,0.3h0.6l0.3-1.7l0,0c0-3.7-3.2-6.9-6.9-6.9c-3.7,0-6.9,3.2-6.9,6.9v0.3l0.9,3.2l0.6-0.3h-0.6c0,2.3-1.7,4.3-4,4.9l-1.4,0.3
			c-2,0-4-1.1-4.9-3.2l-0.6,0.3l0.3,0.6c4.6-1.1,6.3-3.7,6.3-6.9l-0.3-2.6c-0.9-3.2-2.6-5.7-6.6-5.7H161v0.6l0.6-0.3
			c-0.9-2-2-3.2-3.7-3.7l-0.3,0.6h0.6c1.4-18.1,14.6-33,34.1-33h2.9L195.4,34.4h-0.6H195.4v-0.6h-2.9c-20.3,0-34.1,15.5-35.8,33.8
			l0.3,0.6c1.1,0.6,2,1.4,2.9,2.9l0.6,0.3h0.6c3.4,0,4.6,2,5.4,4.9l0.3,2.3c0,2.3-1.1,4.3-5.4,5.4l-0.3,0.3v0.6c1.1,2.3,3.4,4,6,4
			l1.7-0.3c2.9-0.9,4.9-3.4,4.9-6.3V82l-0.9-3.2l-0.6,0.6h0.6c0-2.9,2.6-5.4,5.4-5.4c2.9,0,5.4,2.3,5.4,5.4h0.6h-0.6l-0.3,1.7v0.3
			c0.9,2.6,3.4,4.6,6.3,4.6c3.2,0,6-2.3,6.6-5.4L196,80l-0.6-0.3c-5.7-0.3-6.9-2.6-6.9-6.3c0-3.2,0.9-5.4,4.6-6l0.6-0.6
			c0.6-3.2,2.3-4.3,4.9-4.6l0.6-0.6l-0.3-0.6c-1.7-0.9-2.9-2.3-2.9-4.3h-0.9l0.6,0.3l0.9-2.9v-0.3V49v-0.3l-0.9-2.9l0.9-2.9v-0.3
			v-4.9v-0.3l-0.9-2.9v-0.6l-0.6-0.6L195.4,34.4z M185.9,90v-0.6c-4.3,0.3-8.9,0.9-13.2,1.7v0.6l0.3,0.6c2.3-1.4,4.3-3.7,5.2-6.3
			l-0.3-0.3v0.6h0.3l0,0l1.7-0.3v-0.6l-0.6,0.3c1.4,2.3,3.7,4,6.6,4.9L185.9,90v-0.6V90l0.3-0.6c-2.3-0.9-4.6-2.3-5.7-4.3l-0.6-0.3
			l-1.7,0.3h-0.3l-0.6,0.6c-0.9,2.3-2.6,4.3-4.6,5.7l-0.3,0.9l0.6,0.3c4.3-0.6,8.6-1.1,12.9-1.7l0.6-0.6l-0.6-0.6V90z M156.7,86.6
			l-0.6,0.3c1.4,3.7,4.6,6,8.3,6.9v-0.6v-0.6c-4,0.9-8,2-11.8,2.9l0.3,0.6l0.3,0.6c2.6-2.3,4-5.4,4-8.9v-1.1H156.7l-0.6,0.3
			L156.7,86.6h-0.6v1.1c0,3.2-1.4,6-3.7,7.7l-0.3,0.9l0.9,0.3c3.7-1.1,7.7-2,11.8-2.9l0.6-0.6l-0.6-0.6c-3.2-0.6-6-2.9-7.5-6
			l-0.9-0.3l-0.6,0.6L156.7,86.6z M122.6,101.8l0.3,0.6c3.2-1.4,4.3-3.7,4.3-6l-0.9-3.4c-0.9-2.3-2.3-4.3-4.6-5.2l-0.3,0.6h0.6
			c1.4-17.5,6.3-25.8,22.6-34.1l0.3-0.3l0,0l-0.6-0.3h-0.6v0.9l0,0c0,2,1.1,4,2.6,5.2l0.3-0.6v-0.6c-3.2,0.6-5.4,3.4-5.4,6.6
			c0,3.2,2,5.7,4.9,6.3l0.3-0.6l-0.6-0.3l-0.6,3.2v0.6h0.6l-0.3-0.6c-2.9,1.4-4,3.4-4,5.7l0.3,2.6c0.9,3.2,2.6,5.7,6.6,5.7l3.2-0.3
			l-0.3-0.6h-0.6v0.6c0,2.3-1.7,4.6-4,5.2l-1.4,0.3c-1.7,0-3.2-0.9-4.3-2l-0.6,0.3h0.6l0.6-1.1l0,0c-0.9-3.2-3.4-5.2-6.6-5.2
			l-1.7,0.3c-3.2,0.9-5.2,3.4-5.2,6.6l0.3,1.7v0.3l1.4,2.6l0.6-0.3h-0.6v0.6c0,2-0.9,3.7-2.9,4.6l-2.3,0.3l-1.7-0.3L122.6,101.8
			l0.3,0.6L122.6,101.8l-0.3,0.6l2.3,0.3l3.2-0.9c2.3-1.1,3.4-3.4,3.4-5.7v-0.6v-0.3l-1.4-2.3l-0.6,0.3l0.6-0.3l-0.3-1.4
			c0-2.3,1.7-4.6,4-5.2l1.4-0.3c2.3,0,4.6,1.7,5.2,4l0.6-0.3h-0.6l0.3,1.1v0.3c1.1,1.7,3.2,2.6,5.2,2.6l1.7-0.3
			c2.9-0.9,4.9-3.4,4.9-6.3v-0.6v0.3h-0.6l-2.9,0.3c-3.4,0-4.6-2-5.4-4.9l-0.3-2.3c0-2,0.9-3.4,3.2-4.6l0.3-0.6v-0.6l0.6-2.6v-0.6
			l-0.3-0.3c-2.3-0.6-4-2.9-4-5.2c0-2.6,1.7-4.9,4.3-5.2l0.6-0.6l-0.3-0.6c-1.1-0.9-2-2.6-2-4.3h-0.6h0.6v-0.9l-0.6-0.6l-0.9,0.3
			l0,0l0.6,0.3l-0.3-0.6c-16.6,8.3-22.1,17.5-23.5,35.3l0.6,0.6c1.7,0.6,2.9,2.3,3.7,4.3l0.6,2.9c0,1.7-0.9,3.4-3.7,4.9l-0.3,0.6
			l0.3,0.6L122.6,101.8z M145,98.9l-0.3-0.6c-4,1.4-8.3,3.2-12.3,4.9l0.3,0.6l0.6,0.6c1.7-1.7,2.9-4,3.2-6.3h-0.6v0.6h0.9h0.3l2-1.1
			l-0.3-0.6l-0.3,0.6c2,1.4,4.3,2.3,6.6,2.3V98.9l-0.3-0.6L145,98.9v-0.6c-2,0-4.3-0.9-6-2h-0.6l-2,0.9h-0.6l-0.6,0.6
			c-0.3,2-1.4,4-2.9,5.7v0.9l0.9,0.3c4-1.7,8-3.4,12-4.9l0.3-0.6l-0.6-0.6L145,98.9z M194.5,89.5l0.3,0.6c3.4-1.7,6-4.9,6.6-8.9
			h-0.6h-0.6c0.6,4,3.2,7.2,6.6,8.9l0.3-0.6v-0.6c-2,0-4,0-6,0c-2,0-4,0-6,0L194.5,89.5l0.3,0.6L194.5,89.5V90c2,0,4,0,6,0
			c2,0,4,0,6,0l0.6-0.6l-0.3-0.9c-3.2-1.4-5.2-4.3-5.7-7.7l-0.6-0.6l-0.6,0.6c-0.6,3.4-2.6,6.3-5.7,7.7l-0.3,0.9l0.6,0.6V89.5z
			 M256.2,98.9v0.6c2.3-0.3,4.6-0.9,6.6-2.3l-0.3-0.6l-0.3,0.6l2,1.1h0.3h0.9v-0.6h-0.6c0.6,2.3,1.4,4.6,3.2,6.3l0.6-0.6l0.3-0.6
			c-4-1.7-8-3.4-12.3-4.9L256.2,98.9v0.6V98.9l-0.3,0.6c4,1.4,8,3.2,12,4.9l0.9-0.3v-0.9c-1.4-1.4-2.6-3.4-2.9-5.7l-0.6-0.6h-0.6
			l-2-0.9h-0.6c-1.7,1.1-3.7,2-6,2l-0.6,0.6l0.3,0.6L256.2,98.9z M278.5,101.8l-0.3-0.6l-1.7,0.3l-2.6-0.6c-1.7-0.9-2.9-2.9-2.9-4.6
			v-0.6h-0.6l0.6,0.3l1.4-2.6l0,0l0.3-1.7c0-2.9-2-5.7-5.2-6.6l-1.7-0.3c-2.9,0-5.7,2-6.6,5.2l0,0l-0.3,1.1h0.6l-0.6-0.3
			c-0.9,1.4-2.6,2-4.3,2h-0.9c-2.3-0.6-4-2.9-4-5.2v-0.6h-0.6l-0.3,0.6l3.2,0.3c4,0,6-2.6,6.6-5.7l0.3-2.6c0-2.3-1.1-4.6-4-5.7
			l-0.3,0.6h0.6V74l-0.6-3.2l-0.6,0.3l0.3,0.6c2.9-0.9,4.9-3.4,4.9-6.3c0-3.2-2.3-6-5.4-6.6v0.6l0.3,0.6c1.4-1.1,2.6-3.2,2.6-5.2
			l0,0v-0.9h-0.6l-0.6,0.3l0,0l0.3,0.3c16.3,8.3,21.2,16.6,22.6,34.1h0.6l-0.3-0.6c-2.3,0.6-3.7,2.9-4.6,5.2l-0.9,3.4
			c0,2.3,1.1,4.6,4.3,6L278.5,101.8l-0.3-0.6L278.5,101.8l0.3-0.6c-2.9-1.4-3.4-2.9-3.4-4.9l0.6-2.9c0.9-2,2-3.7,3.7-4.3l0.6-0.6
			c-1.4-17.8-6.9-26.9-23.5-35.3l-0.3,0.6l0.6-0.3l0,0l-0.9-0.3l-0.6,0.6v0.9h0.6h-0.6c0,1.7-0.9,3.2-2,4.3l-0.3,0.6l0.6,0.6
			c2.6,0.6,4.3,2.6,4.3,5.2c0,2.6-1.7,4.6-4,5.2l-0.3,0.3v0.6l0.6,2.6v0.6l0.3,0.6c2.6,1.1,3.2,2.9,3.2,4.6l-0.3,2.3
			c-0.9,2.9-2,4.9-5.4,4.9l-2.9-0.3h-0.6v0.6v0.6c0,2.9,2,5.7,4.9,6.3l1.7,0.3c2,0,4-0.9,5.2-2.6v-0.3l0.3-1.1h-0.6l0.6,0.3
			c0.6-2.6,2.9-4,5.2-4l1.4,0.3c2.6,0.6,4,2.9,4,5.2v0.9l0.6,0.3l-0.6-0.3l-1.4,2.6v0.3v0.6c0,2.3,1.1,4.6,3.4,5.7l3.2,0.9l2.3-0.3
			l0.3-0.6l-0.3-0.6L278.5,101.8z"/>
		<path fill="#FFFFFF" d="M194.5,25.8c0,2-1.4,3.4-3.4,3.4s-3.4-1.4-3.4-3.4s1.4-3.4,3.4-3.4C192.8,22.4,194.5,23.8,194.5,25.8z"/>
		<path fill="#0D4C92" d="M194.5,25.8H194c0,1.7-1.4,2.9-2.9,2.9c-1.7,0-2.9-1.4-2.9-2.9c0-1.7,1.4-2.9,2.9-2.9
			c1.7,0,2.9,1.4,2.9,2.9H194.5h0.6c0-2-1.7-3.7-4-3.7c-2,0-4,1.7-4,3.7s1.7,4,4,4c2,0,4-1.7,4-4H194.5z"/>
		<path fill="#FFFFFF" d="M204,35c0,2-1.4,3.4-3.4,3.4c-2,0-3.4-1.4-3.4-3.4s1.4-3.4,3.4-3.4C202.6,31.6,204,33.3,204,35z"/>
		<path fill="#0D4C92" d="M204,35h-0.6c0,1.7-1.4,2.9-2.9,2.9c-1.7,0-2.9-1.4-2.9-2.9c0-1.7,1.4-2.9,2.9-2.9c1.7,0,2.9,1.4,2.9,2.9
			H204h0.6c0-2-1.7-4-4-4c-2,0-4,1.7-4,4c0,2,1.7,3.7,4,3.7c2,0,4-1.7,4-3.7H204z"/>
		<path fill="#FFFFFF" d="M204,45.9c0,2-1.4,3.4-3.4,3.4c-2,0-3.4-1.4-3.4-3.4s1.4-3.4,3.4-3.4C202.6,42.5,204,44.2,204,45.9z"/>
		<path fill="#0D4C92" d="M204,45.9h-0.6c0,1.7-1.4,2.9-2.9,2.9c-1.7,0-2.9-1.4-2.9-2.9c0-1.7,1.4-2.9,2.9-2.9
			c1.7,0,2.9,1.4,2.9,2.9H204h0.6c0-2-1.7-4-4-4c-2,0-4,1.7-4,4c0,2,1.7,4,4,4c2,0,4-1.7,4-4H204z"/>
		<path fill="#FFFFFF" d="M204,56.8c0,2-1.4,3.4-3.4,3.4c-2,0-3.4-1.4-3.4-3.4c0-2,1.4-3.4,3.4-3.4C202.6,53.3,204,54.8,204,56.8z"
			/>
		<path fill="#0D4C92" d="M204,56.8h-0.6c0,1.7-1.4,2.9-2.9,2.9c-1.7,0-2.9-1.4-2.9-2.9c0-1.7,1.4-2.9,2.9-2.9
			c1.7,0,2.9,1.4,2.9,2.9H204h0.6c0-2-1.7-4-4-4c-2,0-4,1.7-4,4c0,2,1.7,3.7,4,3.7c2,0,4-1.7,4-3.7H204z"/>
		<path fill="#FFFFFF" d="M184.8,27.6c0,2-1.4,3.4-3.4,3.4s-3.4-1.4-3.4-3.4c0-2,1.4-3.4,3.4-3.4C183.1,24.1,184.8,25.5,184.8,27.6z
			"/>
		<path fill="#0D4C92" d="M184.8,27.6h-0.6c0,1.7-1.4,2.9-2.9,2.9c-1.7,0-2.9-1.4-2.9-2.9c0-1.7,1.4-2.9,2.9-2.9
			c1.7,0,2.9,1.4,2.9,2.9H184.8h0.6c0-2-1.7-4-3.7-4s-4,1.7-4,4c0,2,1.7,3.7,4,3.7c2,0,3.7-1.7,3.7-3.7H184.8z"/>
		<path fill="#FFFFFF" d="M175,31c0,2-1.4,3.4-3.4,3.4c-2,0-3.4-1.4-3.4-3.4s1.4-3.4,3.4-3.4C173.6,27.6,175,29,175,31z"/>
		<path fill="#0D4C92" d="M175,31h-0.6c0,1.7-1.4,2.9-2.9,2.9c-1.7,0-2.9-1.4-2.9-2.9c0-1.7,1.4-2.9,2.9-2.9c1.7,0,2.9,1.4,2.9,2.9
			H175h0.6c0-2-1.7-4-3.7-4s-4,1.7-4,4c0,2,1.7,3.7,4,3.7c2,0,3.7-1.7,3.7-3.7H175z"/>
		<path fill="#FFFFFF" d="M165.9,37c0,2-1.4,3.4-3.4,3.4S159,39,159,37c0-2,1.4-3.4,3.4-3.4S165.9,35.3,165.9,37z"/>
		<path fill="#0D4C92" d="M165.9,37h-0.6c0,1.7-1.4,2.9-2.9,2.9c-1.7,0-2.9-1.4-2.9-2.9c0-1.7,1.4-2.9,2.9-2.9
			c1.7,0,2.9,1.4,2.9,2.9H165.9h0.6c0-2-1.7-4-4-4c-2,0-3.7,1.7-4,4c0,2,1.7,4,4,4c2,0,4-1.7,4-4H165.9z"/>
		<path fill="#FFFFFF" d="M159,45.3c0,2-1.4,3.4-3.4,3.4c-2,0-3.4-1.4-3.4-3.4s1.4-3.4,3.4-3.4C157.6,41.9,159,43.3,159,45.3z"/>
		<path fill="#0D4C92" d="M159,45.3h-0.6c0,1.7-1.4,2.9-2.9,2.9c-1.7,0-2.9-1.4-2.9-2.9c0-1.7,1.4-2.9,2.9-2.9
			c1.7,0,2.9,1.4,2.9,2.9H159h0.6c0-2-1.7-3.7-4-4c-2,0-4,1.7-4,4c0,2,1.7,4,4,4c2,0,4-1.7,4-4H159z"/>
		<path fill="#FFFFFF" d="M149.3,44.5c0,2-1.4,3.4-3.4,3.4c-2,0-3.4-1.4-3.4-3.4s1.4-3.4,3.4-3.4C147.8,41,149.3,42.5,149.3,44.5z"
			/>
		<path fill="#0D4C92" d="M149.3,44.5h-0.6c0,1.7-1.4,2.9-2.9,2.9c-1.7,0-2.9-1.4-2.9-2.9c0-1.7,1.4-2.9,2.9-2.9
			c1.7,0,2.9,1.4,2.9,2.9H149.3h0.6c0-2-1.7-4-4-4c-2,0-4,1.7-4,4c0,2,1.7,3.7,4,3.7c2,0,4-1.7,4-3.7H149.3z"/>
		<path fill="#FFFFFF" d="M140.1,48.2c0,2-1.4,3.4-3.4,3.4c-2,0-3.4-1.4-3.4-3.4c0-2,1.4-3.4,3.4-3.4
			C138.4,44.7,140.1,46.2,140.1,48.2z"/>
		<path fill="#0D4C92" d="M140.1,48.2h-0.6c0,1.7-1.4,2.9-2.9,2.9c-1.7,0-2.9-1.4-2.9-2.9c0-1.7,1.4-2.9,2.9-2.9
			c1.7,0,2.9,1.4,2.9,2.9H140.1h0.6c0-2-1.7-4-3.7-4c-2,0-4,1.7-4,4c0,2,1.7,3.7,4,3.7c2,0,3.7-1.7,3.7-3.7H140.1z"/>
		<path fill="#FFFFFF" d="M131.2,54.5c0,2-1.4,3.4-3.4,3.4s-3.4-1.4-3.4-3.4s1.4-3.4,3.4-3.4S131.2,52.5,131.2,54.5z"/>
		<path fill="#0D4C92" d="M131.2,54.5h-0.6c0,1.7-1.4,2.9-2.9,2.9c-1.7,0-2.9-1.4-2.9-2.9c0-1.7,1.4-2.9,2.9-2.9
			c1.7,0,2.9,1.4,2.9,2.9H131.2h0.6c0-2-1.7-4-4-4c-2,0-4,1.7-4,4c0,2,1.7,3.7,4,3.7c2,0,4-1.7,4-3.7H131.2z"/>
		<path fill="#FFFFFF" d="M124,62.8c0,2-1.4,3.4-3.4,3.4c-2,0-3.4-1.4-3.4-3.4c0-2,1.4-3.4,3.4-3.4C122.6,59.4,124,60.8,124,62.8z"
			/>
		<path fill="#0D4C92" d="M124,62.8h-0.6c0,1.7-1.4,2.9-2.9,2.9c-1.7,0-2.9-1.4-2.9-2.9c0-1.7,1.4-2.9,2.9-2.9
			c1.7,0,2.9,1.4,2.9,2.9H124h0.6c0-2-1.7-3.7-3.7-4c-2,0-4,1.7-4,4c0,2,1.7,4,4,4c2,0,3.7-1.7,3.7-4H124z"/>
		<path fill="#FFFFFF" d="M119.7,72.3c0,2-1.4,3.4-3.4,3.4s-3.4-1.4-3.4-3.4c0-2,1.4-3.4,3.4-3.4S119.7,70.3,119.7,72.3z"/>
		<path fill="#0D4C92" d="M119.7,72.3h-0.6c0,1.7-1.4,2.9-2.9,2.9c-1.7,0-2.9-1.4-2.9-2.9c0-1.7,1.4-2.9,2.9-2.9
			c1.7,0,2.9,1.4,2.9,2.9H119.7h0.6c0-2-1.7-4-3.7-4c-2,0-4,1.7-4,4c0,2,1.7,4,4,4c2.3,0,3.7-1.7,3.7-4H119.7z"/>
		<path fill="#FFFFFF" d="M117.2,82.9c0,2-1.4,3.4-3.4,3.4c-2,0-3.4-1.4-3.4-3.4c0-2,1.4-3.4,3.4-3.4
			C115.7,79.4,117.2,80.9,117.2,82.9z"/>
		<path fill="#0D4C92" d="M117.2,82.9h-0.6c0,1.7-1.4,2.9-2.9,2.9c-1.7,0-2.9-1.4-2.9-2.9c0-1.7,1.4-2.9,2.9-2.9
			c1.7,0,2.9,1.4,2.9,2.9H117.2h0.6c0-2-1.7-3.7-4-3.7c-2,0-3.7,1.7-4,3.7c0,2,1.7,3.7,4,3.7c2,0,3.7-1.7,4-3.7H117.2z"/>
		<path fill="#FFFFFF" d="M184.8,104.9c0,2-1.4,3.4-3.4,3.4s-3.4-1.4-3.4-3.4s1.4-3.4,3.4-3.4S184.8,102.9,184.8,104.9z"/>
		<path fill="#0D4C92" d="M184.8,104.9h-0.6c0,1.7-1.4,2.9-2.9,2.9c-1.7,0-2.9-1.4-2.9-2.9c0-1.7,1.4-2.9,2.9-2.9
			c1.7,0,2.9,1.4,2.9,2.9H184.8h0.6c0-2-1.7-3.7-4-3.7c-2,0-3.7,1.7-4,3.7c0,2,1.7,4,4,4c2,0,4-1.7,4-4H184.8z"/>
		<path fill="#FFFFFF" d="M147.8,114.7c0,2-1.4,3.4-3.4,3.4c-2,0-3.4-1.4-3.4-3.4c0-2,1.4-3.4,3.4-3.4
			C146.1,111.5,147.8,113,147.8,114.7z"/>
		<path fill="#0D4C92" d="M147.8,114.7h-0.6c0,1.7-1.4,2.9-2.9,2.9c-1.7,0-2.9-1.4-2.9-2.9c0-1.7,1.4-2.9,2.9-2.9
			c1.7,0,2.9,1.4,2.9,2.9H147.8h0.6c0-2-1.7-3.7-3.7-3.7s-4,1.7-4,3.7c0,2,1.7,4,4,4c2,0,3.7-1.7,3.7-4H147.8z"/>
		<path fill="#FFFFFF" d="M154.1,54.5c0,2-1.4,3.4-3.4,3.4c-2,0-3.4-1.4-3.4-3.4s1.4-3.4,3.4-3.4C152.7,51.3,154.1,52.8,154.1,54.5z
			"/>
		<path fill="#0D4C92" d="M154.1,54.5h-0.6c0,1.7-1.4,2.9-2.9,2.9c-1.7,0-2.9-1.4-2.9-2.9c0-1.7,1.4-2.9,2.9-2.9
			c1.7,0,2.9,1.4,2.9,2.9H154.1h0.6c0-2-1.7-4-3.7-4s-4,1.7-4,4c0,2,1.7,3.7,4,3.7c2,0,3.7-1.7,3.7-3.7H154.1z"/>
		<path fill="#FFFFFF" d="M151.8,65.4c0,2-1.4,3.4-3.4,3.4s-3.4-1.4-3.4-3.4c0-2,1.4-3.4,3.4-3.4C150.1,61.9,151.8,63.4,151.8,65.4z
			"/>
		<path fill="#0D4C92" d="M151.8,65.4h-0.6c0,1.7-1.4,2.9-2.9,2.9c-1.7,0-2.9-1.4-2.9-2.9c0-1.7,1.4-2.9,2.9-2.9
			c1.7,0,2.9,1.4,2.9,2.9H151.8h0.3c0-2-1.7-4-3.7-4s-4,1.7-4,4c0,2,1.7,3.7,4,3.7c2,0,3.7-1.7,3.7-3.7H151.8z"/>
		<path fill="#FFFFFF" d="M206.3,72.3c0,3.2-2.6,5.7-5.7,5.7c-3.2,0-5.7-2.6-5.7-5.7s2.6-5.7,5.7-5.7
			C203.7,66.5,206.3,69.1,206.3,72.3z"/>
		<path fill="#0D4C92" d="M206.3,72.3h-0.6c0,2.9-2.3,5.4-5.4,5.4c-2.9,0-5.4-2.3-5.4-5.4c0-2.9,2.3-5.4,5.4-5.4
			c2.9,0,5.4,2.3,5.4,5.4H206.3h0.6c0-3.4-2.9-6.3-6.3-6.3c-3.4,0-6.3,2.9-6.3,6.3c0,3.4,2.9,6.3,6.3,6.3c3.4,0,6.3-2.9,6.3-6.3
			H206.3z"/>
		<path fill="#FFFFFF" d="M160.1,76.6c0.9,3.2-1.1,6.3-4.3,7.2c-3.2,0.9-6.3-1.1-7.2-4.3s1.1-6.3,4.3-7.2
			C156.1,71.7,159.3,73.7,160.1,76.6z"/>
		<path fill="#0D4C92" d="M160.1,76.6h-0.6l0.3,1.4c0,2.3-1.7,4.6-4,5.2l-1.4,0.3c-2.3,0-4.6-1.7-5.2-4l0-1.4c0-2.3,1.7-4.6,4-5.2
			l1.4-0.3c2.3,0,4.6,1.7,5.2,4H160.1h0.6c-0.9-2.9-3.2-4.6-6-4.6l-1.4,0.3c-2.9,0.9-4.6,3.2-4.6,6l0.3,1.4c0.9,2.9,3.2,4.6,6,4.6
			l1.4-0.3c2.9-0.9,4.6-3.2,4.6-6l-0.3-1.4H160.1z"/>
		<path fill="#FFFFFF" d="M120,94c1.4,2.9,0.6,6.3-2.3,8c-2.9,1.4-6.3,0.6-8-2.3c-1.4-2.9-0.6-6.3,2.3-8C114.9,90,118.6,91.2,120,94
			z"/>
		<path fill="#0D4C92" d="M120,94l-0.3,0.3l0.6,2.6c0,2-0.9,3.7-2.9,4.6l-2.6,0.6c-2,0-3.7-0.9-4.6-2.9l-0.6-2.6
			c0-2,0.9-3.7,2.9-4.6l2.6-0.6c2,0,3.7,0.9,4.6,2.9L120,94l0.3-0.3c-1.1-2-3.2-3.2-5.4-3.2l-2.9,0.9c-2,1.1-3.2,3.2-3.2,5.4
			l0.9,3.2c1.1,2,3.2,3.2,5.4,3.2l3.2-0.9c2-1.1,3.2-3.2,3.2-5.4l-0.9-3.2L120,94z"/>
		<path fill="#FFFFFF" d="M206.6,25.8c0,2,1.4,3.4,3.4,3.4s3.4-1.4,3.4-3.4s-1.4-3.4-3.4-3.4C208,22.4,206.6,23.8,206.6,25.8z"/>
		<path fill="#0D4C92" d="M206.6,25.8H206c0,2,1.7,4,4,4c2,0,3.7-1.7,3.7-4c0-2-1.7-3.7-3.7-3.7c-2,0-4,1.7-4,3.7H206.6h0.6
			c0-1.7,1.4-2.9,2.9-2.9c1.7,0,2.9,1.4,2.9,2.9c0,1.7-1.4,2.9-2.9,2.9c-1.7,0-2.9-1.4-2.9-2.9H206.6z"/>
		<path fill="#FFFFFF" d="M216.3,27.6c0,2,1.4,3.4,3.4,3.4s3.4-1.4,3.4-3.4s-1.4-3.4-3.4-3.4C218,24.1,216.3,25.5,216.3,27.6z"/>
		<path fill="#0D4C92" d="M216.3,27.6h-0.6c0,2,1.7,3.7,4,3.7c2,0,4-1.7,4-3.7s-1.7-4-4-4c-2,0-4,1.7-4,4H216.3h0.6
			c0-1.7,1.4-2.9,2.9-2.9c1.7,0,2.9,1.4,2.9,2.9c0,1.7-1.4,2.9-2.9,2.9c-1.7,0-2.9-1.4-2.9-2.9H216.3z"/>
		<path fill="#FFFFFF" d="M225.8,31c0,2,1.4,3.4,3.4,3.4c2,0,3.4-1.4,3.4-3.4s-1.4-3.4-3.4-3.4C227.5,27.6,225.8,29,225.8,31z"/>
		<path fill="#0D4C92" d="M225.8,31h-0.6c0,2,1.7,3.7,4,3.7c2,0,4-1.7,4-3.7s-1.7-3.7-4-4c-2,0-4,1.7-4,4H225.8h0.6
			c0-1.7,1.4-2.9,2.9-2.9c1.7,0,2.9,1.4,2.9,2.9c0,1.7-1.4,2.9-2.9,2.9c-1.7,0-2.9-1.4-2.9-2.9H225.8z"/>
		<path fill="#FFFFFF" d="M234.9,37c0,2,1.4,3.4,3.4,3.4c2,0,3.4-1.4,3.4-3.4c0-2-1.4-3.4-3.4-3.4C236.7,33.6,234.9,35.3,234.9,37z"
			/>
		<path fill="#0D4C92" d="M234.9,37h-0.6c0,2,1.7,4,4,4c2,0,3.7-1.7,3.7-4c0-2-1.7-4-3.7-4c-2,0-4,1.7-4,4H234.9h0.6
			c0-1.7,1.4-2.9,2.9-2.9c1.7,0,2.9,1.4,2.9,2.9c0,1.7-1.4,2.9-2.9,2.9c-1.7,0-2.9-1.4-2.9-2.9H234.9z"/>
		<path fill="#FFFFFF" d="M242.1,45.3c0,2,1.4,3.4,3.4,3.4c2,0,3.4-1.4,3.4-3.4s-1.4-3.4-3.4-3.4C243.5,41.9,242.1,43.3,242.1,45.3z
			"/>
		<path fill="#0D4C92" d="M242.1,45.3h-0.6c0,2,1.7,4,4,4s3.7-1.7,3.7-4c0-2-1.7-4-3.7-4c-2,0-4,1.7-4,4H242.1h0.6
			c0-1.7,1.4-2.9,2.9-2.9c1.7,0,2.9,1.4,2.9,2.9c0,1.7-1.4,2.9-2.9,2.9c-1.7,0-2.9-1.4-2.9-2.9H242.1z"/>
		<path fill="#FFFFFF" d="M251.6,44.5c0,2,1.4,3.4,3.4,3.4c2,0,3.4-1.4,3.4-3.4S257,41,255,41C253.3,41,251.6,42.5,251.6,44.5z"/>
		<path fill="#0D4C92" d="M251.6,44.5H251c0,2,1.7,3.7,4,3.7c2,0,4-1.7,4-3.7c0-2-1.7-4-4-4c-2,0-4,1.7-4,4H251.6h0.6
			c0-1.7,1.4-2.9,2.9-2.9c1.7,0,2.9,1.4,2.9,2.9c0,1.7-1.4,2.9-2.9,2.9c-1.4,0-2.9-1.4-2.9-2.9H251.6z"/>
		<path fill="#FFFFFF" d="M261,48.2c0,2,1.4,3.4,3.4,3.4s3.4-1.4,3.4-3.4c0-2-1.4-3.4-3.4-3.4C262.5,44.7,261,46.2,261,48.2z"/>
		<path fill="#0D4C92" d="M261,48.2h-0.6c0,2,1.7,3.7,4,3.7c2,0,4-1.7,4-3.7c0-2-1.7-4-4-4c-2,0-4,1.7-4,4H261h0.6
			c0-1.7,1.4-2.9,2.9-2.9c1.7,0,2.9,1.4,2.9,2.9c0,1.7-1.4,2.9-2.9,2.9c-1.7,0-2.9-1.4-2.9-2.9H261z"/>
		<path fill="#FFFFFF" d="M269.9,54.5c0,2,1.4,3.4,3.4,3.4c2,0,3.4-1.4,3.4-3.4s-1.4-3.4-3.4-3.4C271.3,51.1,269.9,52.5,269.9,54.5z
			"/>
		<path fill="#0D4C92" d="M269.9,54.5h-0.6c0,2,1.7,3.7,4,3.7c2,0,3.7-1.7,3.7-3.7c0-2-1.7-4-3.7-4c-2,0-4,1.7-4,4H269.9h0.6
			c0-1.7,1.4-2.9,2.9-2.9c1.7,0,2.9,1.4,2.9,2.9c0,1.7-1.4,2.9-2.9,2.9c-1.7,0-2.9-1.4-2.9-2.9H269.9z"/>
		<path fill="#FFFFFF" d="M276.8,62.8c0,2,1.4,3.4,3.4,3.4s3.4-1.4,3.4-3.4c0-2-1.4-3.4-3.4-3.4C278.5,59.4,276.8,60.8,276.8,62.8z"
			/>
		<path fill="#0D4C92" d="M276.8,62.8h-0.6c0,2,1.7,4,4,4c2,0,4-1.7,4-4c0-2-1.7-3.7-4-4c-2,0-4,1.7-4,4H276.8h0.6
			c0-1.7,1.4-2.9,2.9-2.9c1.7,0,2.9,1.4,2.9,2.9c0,1.7-1.4,2.9-2.9,2.9c-1.7,0-2.9-1.4-2.9-2.9H276.8z"/>
		<path fill="#FFFFFF" d="M281.4,72.3c0,2,1.4,3.4,3.4,3.4c2,0,3.4-1.4,3.4-3.4c0-2-1.4-3.4-3.4-3.4
			C282.8,68.8,281.4,70.3,281.4,72.3z"/>
		<path fill="#0D4C92" d="M281.4,72.3h-0.6c0,2,1.7,4,4,4c2,0,3.7-1.7,3.7-4c0-2-1.7-4-3.7-4c-2,0-4,1.7-4,4H281.4h0.6
			c0-1.7,1.4-2.9,2.9-2.9c1.7,0,2.9,1.4,2.9,2.9c0,1.7-1.4,2.9-2.9,2.9c-1.7,0-2.9-1.4-2.9-2.9H281.4z"/>
		<path fill="#FFFFFF" d="M284,82.9c0,2,1.4,3.4,3.4,3.4c2,0,3.4-1.4,3.4-3.4c0-2-1.4-3.4-3.4-3.4C285.4,79.4,284,80.9,284,82.9z"/>
		<path fill="#0D4C92" d="M284,82.9h-0.6c0,2,1.7,3.7,4,3.7c2,0,4-1.7,4-3.7s-1.7-3.7-4-3.7c-2,0-4,1.7-4,3.7H284h0.6
			c0-1.7,1.4-2.9,2.9-2.9c1.7,0,2.9,1.4,2.9,2.9c0,1.7-1.4,2.9-2.9,2.9c-1.7,0-2.9-1.4-2.9-2.9H284z"/>
		<path fill="#FFFFFF" d="M246.7,54.5c0,2,1.4,3.4,3.4,3.4c2,0,3.4-1.4,3.4-3.4s-1.4-3.4-3.4-3.4C248.4,51.3,246.7,52.8,246.7,54.5z
			"/>
		<path fill="#0D4C92" d="M246.7,54.5h-0.6c0,2,1.7,3.7,4,3.7c2,0,3.7-1.7,3.7-3.7c0-2-1.7-4-3.7-4c-2,0-4,1.7-4,4H246.7h0.6
			c0-1.7,1.4-2.9,2.9-2.9c1.7,0,2.9,1.4,2.9,2.9c0,1.7-1.4,2.9-2.9,2.9c-1.7,0-2.9-1.4-2.9-2.9H246.7z"/>
		<path fill="#FFFFFF" d="M249.3,65.4c0,2,1.4,3.4,3.4,3.4c2,0,3.4-1.4,3.4-3.4c0-2-1.4-3.4-3.4-3.4
			C250.7,61.9,249.3,63.4,249.3,65.4z"/>
		<path fill="#0D4C92" d="M249.3,65.4h-0.6c0,2,1.7,3.7,4,3.7s4-1.7,4-3.7c0-2-1.7-4-4-4s-4,1.7-4,4H249.3h0.6
			c0-1.7,1.4-2.9,2.9-2.9c1.7,0,2.9,1.4,2.9,2.9c0,1.7-1.4,2.9-2.9,2.9c-1.7,0-2.9-1.4-2.9-2.9H249.3z"/>
		<path fill="#FFFFFF" d="M241,76.6c-0.9,3.2,1.1,6.3,4.3,7.2c3.2,0.9,6.3-1.1,7.2-4.3c0.9-3.2-1.1-6.3-4.3-7.2
			C244.7,71.7,241.5,73.7,241,76.6z"/>
		<path fill="#0D4C92" d="M241,76.6h-0.6l-0.3,1.4c0,2.9,2,5.4,4.6,6l1.4,0.3c2.9,0,5.4-2,6-4.6l0.3-1.4c0-2.9-2-5.4-4.6-6l-1.4-0.3
			c-2.9,0-5.4,2-6,4.6H241h0.6c0.6-2.3,2.9-4,5.2-4l1.4,0.3c2.3,0.6,4,2.9,4,5.2l-0.3,1.4c-0.6,2.3-2.9,4-5.2,4l-1.4-0.3
			c-2.3-0.6-4-2.9-4-5.2l0.3-1.4H241z"/>
		<path fill="#FFFFFF" d="M281.1,94c-1.4,2.9-0.6,6.3,2.3,8c2.9,1.4,6.3,0.6,8-2.3c1.4-2.9,0.6-6.3-2.3-8
			C286,90,282.5,91.2,281.1,94z"/>
		<path fill="#0D4C92" d="M281.1,94l-0.3-0.3l-0.9,2.9c0,2.3,1.1,4.3,3.2,5.4l3.2,0.9c2.3,0,4.3-1.1,5.4-3.2l0.9-3.2
			c0-2.3-1.1-4.3-3.2-5.4l-3.2-0.9c-2.3,0-4.3,1.1-5.4,3.2L281.1,94l0.3,0.3c0.9-1.7,2.9-2.9,4.6-2.9l2.6,0.6
			c1.7,0.9,2.9,2.9,2.9,4.6l-0.6,2.6c-0.9,1.7-2.9,2.9-4.6,2.9l-2.9-0.6c-1.7-0.9-2.9-2.9-2.9-4.6l0.6-2.6V94z"/>
		<polygon fill="#C42844" points="200.6,107.8 211.4,103.8 200.6,99.8 189.7,103.8 		"/>
		<polygon fill="#0D4C92" points="200.6,107.8 200.6,108.4 211.4,104.4 211.7,103.8 211.4,103.5 200.6,99.5 200.3,99.5 189.7,103.5 
			189.4,103.8 189.7,104.4 200.3,108.4 200.6,108.4 200.6,107.8 200.6,107.5 191.1,103.8 200.6,100.4 210,103.8 200.3,107.5 
			200.6,107.8 200.6,107.5 		"/>
		<polygon fill="#0D4C92" points="163.6,112.7 173,105.8 161.6,104.7 152.1,111.2 		"/>
		<polygon fill="#0D4C92" points="163.6,112.7 163.9,113 173.3,106.4 173.6,105.8 173,105.5 161.6,104.4 161.3,104.4 151.8,111 
			151.8,111.5 152.1,111.8 163.6,113 163.9,113 163.6,112.7 163.6,112.1 153.3,111 161.6,105.2 171.9,106.4 163.3,112.1 
			163.6,112.7 163.6,112.1 		"/>
		<polygon fill="#C42844" points="137.2,122.1 138.6,116.7 133.8,114.7 132.6,119.6 		"/>
		<polygon fill="#0D4C92" points="137.2,122.1 137.5,122.1 138.9,116.7 138.6,116.1 133.8,114.4 133.5,114.4 133.2,114.7 
			132.1,119.3 132.3,119.8 136.9,122.4 137.2,122.4 137.5,122.1 137.2,122.1 137.2,121.6 132.9,119.3 134.1,115.3 138.1,116.7 
			136.6,121.8 137.2,122.1 137.2,121.6 		"/>
		<path fill="#FFFFFF" d="M216.3,104.9c0,2,1.4,3.4,3.4,3.4s3.4-1.4,3.4-3.4s-1.4-3.4-3.4-3.4S216.3,102.9,216.3,104.9z"/>
		<path fill="#0D4C92" d="M216.3,104.9h-0.6c0,2,1.7,4,3.7,4c2,0,4-1.7,4-4c0-2-1.7-3.7-4-3.7c-2,0-3.7,1.7-3.7,3.7H216.3h0.6
			c0-1.7,1.4-2.9,2.9-2.9c1.7,0,2.9,1.4,2.9,2.9c0,1.7-1.4,2.9-2.9,2.9c-1.7,0-2.9-1.4-2.9-2.9H216.3z"/>
		<path fill="#FFFFFF" d="M253.3,114.7c0,2,1.4,3.4,3.4,3.4c2,0,3.4-1.4,3.4-3.4c0-2-1.4-3.4-3.4-3.4
			C254.7,111.5,253.3,113,253.3,114.7z"/>
		<path fill="#0D4C92" d="M253.3,114.7h-0.6c0,2,1.7,3.7,4,4c2,0,3.7-1.7,3.7-4c0-2-1.7-3.7-3.7-3.7c-2,0-4,1.7-4,3.7H253.3h0.6
			c0-1.7,1.4-2.9,2.9-2.9c1.7,0,2.9,1.4,2.9,2.9c0,1.7-1.4,2.9-2.9,2.9c-1.7,0-2.9-1.4-2.9-2.9H253.3z"/>
		<polygon fill="#0D4C92" points="237.5,112.7 228.1,105.8 239.5,104.7 249,111.2 		"/>
		<polygon fill="#0D4C92" points="237.5,112.7 237.8,112.1 229.2,106.4 239.2,105.2 247.6,111 237.5,112.1 237.5,112.7 237.8,112.1 
			237.5,112.7 237.5,113 249,111.8 249.3,111.5 249.3,111 239.8,104.4 239.5,104.4 228.1,105.5 227.5,105.8 227.8,106.4 237.2,113 
			237.5,113 		"/>
		<polygon fill="#C42844" points="263.9,122.1 262.5,116.7 267.3,114.7 268.5,119.6 		"/>
		<polygon fill="#0D4C92" points="263.9,122.1 264.5,121.8 263,116.7 267,115.3 267.9,119.3 263.6,121.6 263.9,122.1 264.5,121.8 
			263.9,122.1 264.2,122.4 268.8,119.8 269.1,119.3 267.9,114.7 267.6,114.4 267.3,114.4 262.5,116.1 262.2,116.7 263.6,122.1 
			263.9,122.4 264.2,122.4 		"/>
		<path fill="#ECBF07" d="M200.6,116.4c77.4,0,140.2,63.1,140.2,140.4c0,77.1-63.1,140.2-140.2,140.2
			c-77.4,0-140.2-63.1-140.2-140.2C60.1,179.5,123.2,116.4,200.6,116.4z"/>
		<path fill="#0D4C92" d="M200.6,116.4v2c38.1,0,72.8,15.5,97.7,40.7c24.9,24.9,40.4,59.6,40.4,97.7s-15.5,72.5-40.4,97.7
			c-24.9,25.2-59.6,40.7-97.7,40.7s-72.8-15.5-97.7-40.7c-24.9-24.9-40.4-59.6-40.4-97.7s15.5-72.8,40.4-97.7
			c24.9-24.9,59.6-40.7,97.7-40.7V116.4v-2c-78.5,0-142.4,63.9-142.4,142.4C58.1,335.1,122,399,200.6,399S343,335.1,343,256.8
			c0-78.5-63.9-142.4-142.4-142.4C200.6,114.4,200.6,116.4,200.6,116.4z"/>
		<ellipse fill="#FFFFFF" cx="200.6" cy="256.8" rx="122.7" ry="122.7"/>
		<path fill="#0D4C92" d="M200.6,134.2v2c33.2,0,63.3,13.5,85.1,35.3s35.5,51.9,35.5,85.1s-13.5,63.3-35.5,85.1
			c-21.8,21.8-51.9,35.5-85.1,35.5s-63.3-13.5-85.1-35.5c-21.8-21.8-35.5-51.9-35.5-85.1c0-33.2,13.5-63.3,35.5-85.1
			c21.8-21.8,51.9-35.3,85.1-35.3L200.6,134.2l0-2c-68.5,0-124.7,55.9-124.7,124.7c0,68.5,56.2,124.7,124.7,124.7
			s124.7-56.2,124.7-124.7c0-68.8-56.2-124.7-124.7-124.7C200.6,132.2,200.6,134.2,200.6,134.2z"/>
		<path fill="#0D4C92" d="M94.2,207.3C146.4,260.3,196,311,248.1,364c22.1-9.7,40.4-26.1,52.7-46.4L142.7,154.5
			C121.4,166.8,104.5,185.2,94.2,207.3z"/>
		<path fill="#ECBF07" d="M255.9,155.4l-26.9,27.8h-0.3l-0.6,0.6c-8.3-3.2-17.5-5.2-27.8-5.2h-0.6c-9.5,0-19.8,1.7-28.4,5.2
			l-26.9-28.1c-35.3,19.8-59.3,57.6-59.3,100.9c0,28.9,10.6,54.2,28.7,74.2l13.8-14c-8.9-8.3-24.9-31.8-24.1-61.3
			c1.1-30.1,13.5-55.3,37.3-75.1l13.2,13.8c-18.3,13.8-31.2,35.3-31.5,59.6c-0.6,35.3,23.8,67.6,58.8,76.2v19.5H200h0.3v-17.5
			c24.4-0.3,46.4-12,59.6-28.4l-14.6-14.6c-13.5,15.8-33.5,23.5-45,22.6v-14.9h23.5v-17.5h-23.5v-10.9h23.8v-15.8H200h-18.9v55.6
			c-25.5-8.6-39.6-30.4-39-53.3c0.6-20.6,10.9-37.3,25.2-47.3l32.7,33.8l0.6,0.6l31.8-33.8c8,5.4,14,12.3,18.1,20.3l15.5-13.5
			c-4.6-7.7-11.2-15.2-19.8-21.5L259,180c18.1,12.3,37,42.1,37,75.1c0,27.2-9.2,43.9-23.8,61l15.2,15.2
			c17.5-20.3,28.1-46.4,28.1-75.1C315.8,213,291.7,175.2,255.9,155.4z M200.3,213.6l-0.3-0.3l-13.5-14c4.6-1.1,9.7-1.7,12.9-1.4h0.6
			c4.6,0.3,9.2,0.9,13.5,2L200.3,213.6z"/>
		<path fill="#0D4C92" d="M255.9,155.4l-1.4-1.4l-26.7,27.8l1.4,1.4v-2h-0.3h-0.9l-1.1,1.1l1.4,1.4l0.9-2
			c-8.3-3.2-18.1-5.2-28.7-5.4l0,0l0,0c-9.7,0-20.6,1.7-29.8,5.4l0.9,2l1.4-1.4L145,153.1l-1.4,0.6C107.4,173.7,83,212.4,83,256.3
			c0,29.5,10.9,55,29.2,75.7l1.4,1.7l16.6-17.2l-1.4-1.4c-8.3-7.7-23.5-29.8-23.5-57.3v-2.3c0.9-29.5,12.9-54.2,36.4-73.7l-1.1-1.4
			l-1.4,1.4l13.2,13.8l1.4-1.4l-1.1-1.7c-18.9,14-32.1,36.1-32.4,61v0.9c0,35.8,24.6,68.5,60.2,77.4l0.6-2h-2v21.8h23.2v-19.5h-2v2
			c24.9-0.3,47.6-12.3,61.3-28.9l1.1-1.4l-17.5-17.5l-1.4,1.7c-12.3,14.9-31.2,22.1-42.1,22.1h-1.1v2h2V299h23.5v-21.5h-23.5v-6.9
			h23.8v-20.1h-47.3v57.6h2l0.6-2c-24.4-8-37.5-28.7-37.5-50.2v-1.1c0.6-20.1,10.3-36.1,24.4-45.9l-1.1-1.7l-1.4,1.4l34.4,36.1
			l33.2-35.3l-1.1-1.4l-1.1,1.7c7.7,5.2,13.5,12,17.5,19.5l1.1,2.3l18.6-16.1l-0.9-1.4c-4.9-8-11.5-15.8-20.1-22.1l-1.1,1.7l1.4,1.4
			l12.9-13.5l-1.4-1.4l-1.1,1.7c17.5,12,36.1,41.3,36.1,73.4c0,26.7-8.9,42.7-23.2,59.6l-1.4,1.4l18.1,18.1l1.4-1.7
			c17.8-20.6,28.7-47.3,28.7-76.5c0-44.1-24.6-82.8-60.8-102.9l-1.4-0.9l-1.1,1.1L255.9,155.4l-0.9,1.7c35,19.5,58.8,56.7,58.8,99.5
			c0,28.4-10.3,53.9-27.5,73.9l1.4,1.4l1.4-1.4l-15.2-15.2l-1.4,1.1l1.4,1.4c14.6-17.5,24.1-34.7,24.1-62.2
			c0-33.5-19.2-63.9-37.8-76.8l-1.4-0.9L243,194.4l1.7,1.4c8.3,6,14.6,13.5,19.2,20.9l1.7-1.1l-1.4-1.4l-15.5,13.5l1.4,1.4l1.7-0.9
			c-4.3-8.3-10.6-15.5-18.9-21.2l-1.4-0.9l-31.2,33L167.6,205l-1.4,0.9c-14.9,10.3-25.5,27.5-26.1,49v1.1
			c0,23.2,14.3,45.3,40.4,54.2l2.6,0.9v-56.2h39v11.8h-23.8v14.9h23.5v13.2h-23.5v18.9h2h1.4c12.6,0,32.1-7.7,45.3-23.5l-1.4-1.4
			l-1.4,1.4l14.6,14.6l1.4-1.4l-1.4-1.1c-12.9,15.8-34.4,27.5-58.2,27.5h-2v17.5h-15.2v-19.2l-1.4-0.3
			c-33.5-8.3-57.3-39.6-57.3-73.4v-0.9c0.3-23.5,12.9-44.4,30.7-57.9l1.7-1.4l-16.3-16.6l-1.4,1.1c-24.4,20.1-37,45.9-38.1,76.5v2.3
			c0,29.2,15.8,51.9,24.9,60.5l1.4-1.4L126,315l-13.8,14l1.4,1.4l1.4-1.4c-17.8-19.8-28.1-44.4-28.1-73.1
			c0-42.4,23.8-79.7,58.5-99.2l-0.9-1.7l-1.4,1.4l27.8,29.2l1.1-0.6c8.6-3.4,18.9-5.2,28.4-5.2v-2v2c10,0.3,19.2,2,27.2,5.2l1.1,0.6
			l1.4-1.4l-1.4-1.4v2h0.3h0.9l27.5-28.4L255.9,155.4l-0.9,1.7L255.9,155.4z M200.3,213.6l1.4-1.4l-14-14.3l-1.1,1.4l0.6,2
			c4-0.9,8.6-1.4,11.5-1.4h0.9l0,0l0,0c4.6,0.3,9.2,0.9,13.5,2l0.6-2l-1.4-1.4l-13.2,13.8L200.3,213.6l1.4-1.4L200.3,213.6l1.4,1.4
			l15.5-16.3l-3.4-0.9c-4.6-1.1-9.5-1.7-14.3-2v2v-2h-1.1c-3.4,0-8,0.6-12.3,1.4l-3.4,0.9l18.1,18.3l1.4-1.4L200.3,213.6z"/>
	</g>
</g>
<g>
</g>
<g>
</g>
<g>
</g>
<g>
</g>
<g>
</g>
<g>
</g>
<g>
</g>
<g>
</g>
<g>
</g>
<g>
</g>
<g>
</g>
<g>
</g>
<g>
</g>
<g>
</g>
<g>
</g>
</svg>
